<svg width="1439" height="740" viewBox="0 0 1439 740" fill="none" xmlns="http://www.w3.org/2000/svg">
<g clip-path="url(#clip0_34_1402)">
<path d="M470.421 607.036C472.788 607.036 474.707 605.283 474.707 603.122C474.707 600.96 472.788 599.207 470.421 599.207C468.053 599.207 466.134 600.96 466.134 603.122C466.134 605.283 468.053 607.036 470.421 607.036Z" fill="#EBEBEB" stroke="#EBEBEB" stroke-width="0.5" stroke-miterlimit="10"/>
<path d="M493.772 643.969C496.14 643.969 498.059 642.217 498.059 640.055C498.059 637.893 496.14 636.141 493.772 636.141C491.405 636.141 489.485 637.893 489.485 640.055C489.485 642.217 491.405 643.969 493.772 643.969Z" fill="#EBEBEB" stroke="#EBEBEB" stroke-width="0.5" stroke-miterlimit="10"/>
<path d="M540.477 643.969C542.845 643.969 544.764 642.217 544.764 640.055C544.764 637.893 542.845 636.141 540.477 636.141C538.11 636.141 536.19 637.893 536.19 640.055C536.19 642.217 538.11 643.969 540.477 643.969Z" fill="#EBEBEB" stroke="#EBEBEB" stroke-width="0.5" stroke-miterlimit="10"/>
<path d="M540.477 570.111C542.845 570.111 544.764 568.358 544.764 566.196C544.764 564.035 542.845 562.282 540.477 562.282C538.11 562.282 536.19 564.035 536.19 566.196C536.19 568.358 538.11 570.111 540.477 570.111Z" fill="#EBEBEB" stroke="#EBEBEB" stroke-width="0.5" stroke-miterlimit="10"/>
<path d="M563.821 607.036C566.188 607.036 568.108 605.283 568.108 603.122C568.108 600.96 566.188 599.207 563.821 599.207C561.453 599.207 559.534 600.96 559.534 603.122C559.534 605.283 561.453 607.036 563.821 607.036Z" fill="#EBEBEB" stroke="#EBEBEB" stroke-width="0.5" stroke-miterlimit="10"/>
<path d="M493.772 570.111C496.14 570.111 498.059 568.358 498.059 566.196C498.059 564.035 496.14 562.282 493.772 562.282C491.405 562.282 489.485 564.035 489.485 566.196C489.485 568.358 491.405 570.111 493.772 570.111Z" fill="#EBEBEB" stroke="#EBEBEB" stroke-width="0.5" stroke-miterlimit="10"/>
<path d="M540.477 570.111C542.845 570.111 544.764 568.358 544.764 566.196C544.764 564.035 542.845 562.282 540.477 562.282C538.11 562.282 536.19 564.035 536.19 566.196C536.19 568.358 538.11 570.111 540.477 570.111Z" fill="#EBEBEB" stroke="#EBEBEB" stroke-width="0.5" stroke-miterlimit="10"/>
<path d="M493.772 570.111C496.14 570.111 498.059 568.358 498.059 566.196C498.059 564.035 496.14 562.282 493.772 562.282C491.405 562.282 489.485 564.035 489.485 566.196C489.485 568.358 491.405 570.111 493.772 570.111Z" fill="#EBEBEB" stroke="#EBEBEB" stroke-width="0.5" stroke-miterlimit="10"/>
<path d="M540.477 570.111C542.845 570.111 544.764 568.358 544.764 566.196C544.764 564.035 542.845 562.282 540.477 562.282C538.11 562.282 536.19 564.035 536.19 566.196C536.19 568.358 538.11 570.111 540.477 570.111Z" fill="#EBEBEB" stroke="#EBEBEB" stroke-width="0.5" stroke-miterlimit="10"/>
<path d="M563.821 607.036C566.188 607.036 568.108 605.283 568.108 603.122C568.108 600.96 566.188 599.207 563.821 599.207C561.453 599.207 559.534 600.96 559.534 603.122C559.534 605.283 561.453 607.036 563.821 607.036Z" fill="#EBEBEB" stroke="#EBEBEB" stroke-width="0.5" stroke-miterlimit="10"/>
<path d="M540.477 643.969C542.845 643.969 544.764 642.217 544.764 640.055C544.764 637.893 542.845 636.141 540.477 636.141C538.11 636.141 536.19 637.893 536.19 640.055C536.19 642.217 538.11 643.969 540.477 643.969Z" fill="#EBEBEB" stroke="#EBEBEB" stroke-width="0.5" stroke-miterlimit="10"/>
<path d="M563.821 680.902C566.188 680.902 568.108 679.15 568.108 676.988C568.108 674.826 566.188 673.074 563.821 673.074C561.453 673.074 559.534 674.826 559.534 676.988C559.534 679.15 561.453 680.902 563.821 680.902Z" fill="#EBEBEB" stroke="#EBEBEB" stroke-width="0.5" stroke-miterlimit="10"/>
<path d="M470.421 680.902C472.788 680.902 474.707 679.15 474.707 676.988C474.707 674.826 472.788 673.074 470.421 673.074C468.053 673.074 466.134 674.826 466.134 676.988C466.134 679.15 468.053 680.902 470.421 680.902Z" fill="#EBEBEB" stroke="#EBEBEB" stroke-width="0.5" stroke-miterlimit="10"/>
<path d="M493.772 717.835C496.14 717.835 498.059 716.083 498.059 713.921C498.059 711.759 496.14 710.007 493.772 710.007C491.405 710.007 489.485 711.759 489.485 713.921C489.485 716.083 491.405 717.835 493.772 717.835Z" fill="#EBEBEB" stroke="#EBEBEB" stroke-width="0.5" stroke-miterlimit="10"/>
<path d="M540.477 717.835C542.845 717.835 544.764 716.083 544.764 713.921C544.764 711.759 542.845 710.007 540.477 710.007C538.11 710.007 536.19 711.759 536.19 713.921C536.19 716.083 538.11 717.835 540.477 717.835Z" fill="#EBEBEB" stroke="#EBEBEB" stroke-width="0.5" stroke-miterlimit="10"/>
<path d="M563.821 607.036C566.188 607.036 568.108 605.283 568.108 603.122C568.108 600.96 566.188 599.207 563.821 599.207C561.453 599.207 559.534 600.96 559.534 603.122C559.534 605.283 561.453 607.036 563.821 607.036Z" fill="#EBEBEB" stroke="#EBEBEB" stroke-width="0.5" stroke-miterlimit="10"/>
<path d="M610.525 607.036C612.893 607.036 614.812 605.283 614.812 603.122C614.812 600.96 612.893 599.207 610.525 599.207C608.158 599.207 606.238 600.96 606.238 603.122C606.238 605.283 608.158 607.036 610.525 607.036Z" fill="#EBEBEB" stroke="#EBEBEB" stroke-width="0.5" stroke-miterlimit="10"/>
<path d="M540.477 643.969C542.845 643.969 544.764 642.217 544.764 640.055C544.764 637.893 542.845 636.141 540.477 636.141C538.11 636.141 536.19 637.893 536.19 640.055C536.19 642.217 538.11 643.969 540.477 643.969Z" fill="#EBEBEB" stroke="#EBEBEB" stroke-width="0.5" stroke-miterlimit="10"/>
<path d="M563.821 680.902C566.188 680.902 568.108 679.15 568.108 676.988C568.108 674.826 566.188 673.074 563.821 673.074C561.453 673.074 559.534 674.826 559.534 676.988C559.534 679.15 561.453 680.902 563.821 680.902Z" fill="#EBEBEB" stroke="#EBEBEB" stroke-width="0.5" stroke-miterlimit="10"/>
<path d="M610.525 680.902C612.893 680.902 614.812 679.15 614.812 676.988C614.812 674.826 612.893 673.074 610.525 673.074C608.158 673.074 606.238 674.826 606.238 676.988C606.238 679.15 608.158 680.902 610.525 680.902Z" fill="#EBEBEB" stroke="#EBEBEB" stroke-width="0.5" stroke-miterlimit="10"/>
<path d="M493.772 643.969C496.14 643.969 498.059 642.217 498.059 640.055C498.059 637.893 496.14 636.141 493.772 636.141C491.405 636.141 489.485 637.893 489.485 640.055C489.485 642.217 491.405 643.969 493.772 643.969Z" fill="#EBEBEB" stroke="#EBEBEB" stroke-width="0.5" stroke-miterlimit="10"/>
<path d="M563.821 680.902C566.188 680.902 568.108 679.15 568.108 676.988C568.108 674.826 566.188 673.074 563.821 673.074C561.453 673.074 559.534 674.826 559.534 676.988C559.534 679.15 561.453 680.902 563.821 680.902Z" fill="#EBEBEB" stroke="#EBEBEB" stroke-width="0.5" stroke-miterlimit="10"/>
<path d="M610.525 680.902C612.893 680.902 614.812 679.15 614.812 676.988C614.812 674.826 612.893 673.074 610.525 673.074C608.158 673.074 606.238 674.826 606.238 676.988C606.238 679.15 608.158 680.902 610.525 680.902Z" fill="#EBEBEB" stroke="#EBEBEB" stroke-width="0.5" stroke-miterlimit="10"/>
<path d="M540.477 717.835C542.845 717.835 544.764 716.083 544.764 713.921C544.764 711.759 542.845 710.007 540.477 710.007C538.11 710.007 536.19 711.759 536.19 713.921C536.19 716.083 538.11 717.835 540.477 717.835Z" fill="#EBEBEB" stroke="#EBEBEB" stroke-width="0.5" stroke-miterlimit="10"/>
<path d="M493.772 717.835C496.14 717.835 498.059 716.083 498.059 713.921C498.059 711.759 496.14 710.007 493.772 710.007C491.405 710.007 489.485 711.759 489.485 713.921C489.485 716.083 491.405 717.835 493.772 717.835Z" fill="#EBEBEB" stroke="#EBEBEB" stroke-width="0.5" stroke-miterlimit="10"/>
<path d="M540.477 717.835C542.845 717.835 544.764 716.083 544.764 713.921C544.764 711.759 542.845 710.007 540.477 710.007C538.11 710.007 536.19 711.759 536.19 713.921C536.19 716.083 538.11 717.835 540.477 717.835Z" fill="#EBEBEB" stroke="#EBEBEB" stroke-width="0.5" stroke-miterlimit="10"/>
<path d="M260.401 718.052C262.769 718.052 264.688 716.3 264.688 714.138C264.688 711.976 262.769 710.224 260.401 710.224C258.034 710.224 256.114 711.976 256.114 714.138C256.114 716.3 258.034 718.052 260.401 718.052Z" fill="#EBEBEB" stroke="#EBEBEB" stroke-width="0.5" stroke-miterlimit="10"/>
<path d="M423.859 681.119C426.227 681.119 428.146 679.367 428.146 677.205C428.146 675.043 426.227 673.291 423.859 673.291C421.492 673.291 419.572 675.043 419.572 677.205C419.572 679.367 421.492 681.119 423.859 681.119Z" fill="#EBEBEB" stroke="#EBEBEB" stroke-width="0.5" stroke-miterlimit="10"/>
<path d="M400.515 718.052C402.883 718.052 404.802 716.3 404.802 714.138C404.802 711.976 402.883 710.224 400.515 710.224C398.148 710.224 396.229 711.976 396.229 714.138C396.229 716.3 398.148 718.052 400.515 718.052Z" fill="#EBEBEB" stroke="#EBEBEB" stroke-width="0.5" stroke-miterlimit="10"/>
<path d="M213.697 718.052C216.064 718.052 217.984 716.3 217.984 714.138C217.984 711.976 216.064 710.224 213.697 710.224C211.329 710.224 209.41 711.976 209.41 714.138C209.41 716.3 211.329 718.052 213.697 718.052Z" fill="#EBEBEB" stroke="#EBEBEB" stroke-width="0.5" stroke-miterlimit="10"/>
<path d="M260.401 718.052C262.769 718.052 264.688 716.3 264.688 714.138C264.688 711.976 262.769 710.224 260.401 710.224C258.034 710.224 256.114 711.976 256.114 714.138C256.114 716.3 258.034 718.052 260.401 718.052Z" fill="#EBEBEB" stroke="#EBEBEB" stroke-width="0.5" stroke-miterlimit="10"/>
<path d="M400.515 718.052C402.883 718.052 404.802 716.3 404.802 714.138C404.802 711.976 402.883 710.224 400.515 710.224C398.148 710.224 396.229 711.976 396.229 714.138C396.229 716.3 398.148 718.052 400.515 718.052Z" fill="#EBEBEB" stroke="#EBEBEB" stroke-width="0.5" stroke-miterlimit="10"/>
<path d="M353.811 718.052C356.179 718.052 358.098 716.3 358.098 714.138C358.098 711.976 356.179 710.224 353.811 710.224C351.444 710.224 349.524 711.976 349.524 714.138C349.524 716.3 351.444 718.052 353.811 718.052Z" fill="#EBEBEB" stroke="#EBEBEB" stroke-width="0.5" stroke-miterlimit="10"/>
<path d="M423.859 681.119C426.227 681.119 428.146 679.367 428.146 677.205C428.146 675.043 426.227 673.291 423.859 673.291C421.492 673.291 419.572 675.043 419.572 677.205C419.572 679.367 421.492 681.119 423.859 681.119Z" fill="#EBEBEB" stroke="#EBEBEB" stroke-width="0.5" stroke-miterlimit="10"/>
<path d="M213.697 718.052C216.064 718.052 217.984 716.3 217.984 714.138C217.984 711.976 216.064 710.224 213.697 710.224C211.329 710.224 209.41 711.976 209.41 714.138C209.41 716.3 211.329 718.052 213.697 718.052Z" fill="#EBEBEB" stroke="#EBEBEB" stroke-width="0.5" stroke-miterlimit="10"/>
<path d="M260.401 718.052C262.769 718.052 264.688 716.3 264.688 714.138C264.688 711.976 262.769 710.224 260.401 710.224C258.034 710.224 256.114 711.976 256.114 714.138C256.114 716.3 258.034 718.052 260.401 718.052Z" fill="#EBEBEB" stroke="#EBEBEB" stroke-width="0.5" stroke-miterlimit="10"/>
<path d="M1124.75 533.069C1127.11 533.069 1129.03 531.317 1129.03 529.155C1129.03 526.993 1127.11 525.241 1124.75 525.241C1122.38 525.241 1120.46 526.993 1120.46 529.155C1120.46 531.317 1122.38 533.069 1124.75 533.069Z" fill="#EBEBEB" stroke="#EBEBEB" stroke-width="0.5" stroke-miterlimit="10"/>
<path d="M1194.8 496.136C1197.17 496.136 1199.09 494.383 1199.09 492.222C1199.09 490.06 1197.17 488.307 1194.8 488.307C1192.44 488.307 1190.52 490.06 1190.52 492.222C1190.52 494.383 1192.44 496.136 1194.8 496.136Z" fill="#EBEBEB" stroke="#EBEBEB" stroke-width="0.5" stroke-miterlimit="10"/>
<path d="M1171.45 533.069C1173.82 533.069 1175.74 531.317 1175.74 529.155C1175.74 526.993 1173.82 525.241 1171.45 525.241C1169.08 525.241 1167.16 526.993 1167.16 529.155C1167.16 531.317 1169.08 533.069 1171.45 533.069Z" fill="#EBEBEB" stroke="#EBEBEB" stroke-width="0.5" stroke-miterlimit="10"/>
<path d="M1194.8 569.994C1197.17 569.994 1199.09 568.242 1199.09 566.08C1199.09 563.918 1197.17 562.166 1194.8 562.166C1192.44 562.166 1190.52 563.918 1190.52 566.08C1190.52 568.242 1192.44 569.994 1194.8 569.994Z" fill="#EBEBEB" stroke="#EBEBEB" stroke-width="0.5" stroke-miterlimit="10"/>
<path d="M1171.45 606.927C1173.82 606.927 1175.74 605.175 1175.74 603.013C1175.74 600.851 1173.82 599.099 1171.45 599.099C1169.08 599.099 1167.16 600.851 1167.16 603.013C1167.16 605.175 1169.08 606.927 1171.45 606.927Z" fill="#EBEBEB" stroke="#EBEBEB" stroke-width="0.5" stroke-miterlimit="10"/>
<path d="M984.64 680.793C987.007 680.793 988.927 679.041 988.927 676.879C988.927 674.718 987.007 672.965 984.64 672.965C982.272 672.965 980.353 674.718 980.353 676.879C980.353 679.041 982.272 680.793 984.64 680.793Z" fill="#EBEBEB" stroke="#EBEBEB" stroke-width="0.5" stroke-miterlimit="10"/>
<path d="M1031.34 680.793C1033.71 680.793 1035.63 679.041 1035.63 676.879C1035.63 674.718 1033.71 672.965 1031.34 672.965C1028.98 672.965 1027.06 674.718 1027.06 676.879C1027.06 679.041 1028.98 680.793 1031.34 680.793Z" fill="#EBEBEB" stroke="#EBEBEB" stroke-width="0.5" stroke-miterlimit="10"/>
<path d="M1054.7 569.994C1057.06 569.994 1058.98 568.242 1058.98 566.08C1058.98 563.918 1057.06 562.166 1054.7 562.166C1052.33 562.166 1050.41 563.918 1050.41 566.08C1050.41 568.242 1052.33 569.994 1054.7 569.994Z" fill="#EBEBEB" stroke="#EBEBEB" stroke-width="0.5" stroke-miterlimit="10"/>
<path d="M1101.39 569.994C1103.76 569.994 1105.68 568.242 1105.68 566.08C1105.68 563.918 1103.76 562.166 1101.39 562.166C1099.03 562.166 1097.11 563.918 1097.11 566.08C1097.11 568.242 1099.03 569.994 1101.39 569.994Z" fill="#EBEBEB" stroke="#EBEBEB" stroke-width="0.5" stroke-miterlimit="10"/>
<path d="M1124.75 606.927C1127.11 606.927 1129.03 605.175 1129.03 603.013C1129.03 600.851 1127.11 599.099 1124.75 599.099C1122.38 599.099 1120.46 600.851 1120.46 603.013C1120.46 605.175 1122.38 606.927 1124.75 606.927Z" fill="#EBEBEB" stroke="#EBEBEB" stroke-width="0.5" stroke-miterlimit="10"/>
<path d="M1031.34 606.927C1033.71 606.927 1035.63 605.175 1035.63 603.013C1035.63 600.851 1033.71 599.099 1031.34 599.099C1028.98 599.099 1027.06 600.851 1027.06 603.013C1027.06 605.175 1028.98 606.927 1031.34 606.927Z" fill="#EBEBEB" stroke="#EBEBEB" stroke-width="0.5" stroke-miterlimit="10"/>
<path d="M1054.7 643.86C1057.06 643.86 1058.98 642.108 1058.98 639.946C1058.98 637.784 1057.06 636.032 1054.7 636.032C1052.33 636.032 1050.41 637.784 1050.41 639.946C1050.41 642.108 1052.33 643.86 1054.7 643.86Z" fill="#EBEBEB" stroke="#EBEBEB" stroke-width="0.5" stroke-miterlimit="10"/>
<path d="M1101.39 643.86C1103.76 643.86 1105.68 642.108 1105.68 639.946C1105.68 637.784 1103.76 636.032 1101.39 636.032C1099.03 636.032 1097.11 637.784 1097.11 639.946C1097.11 642.108 1099.03 643.86 1101.39 643.86Z" fill="#EBEBEB" stroke="#EBEBEB" stroke-width="0.5" stroke-miterlimit="10"/>
<path d="M1194.8 643.86C1197.17 643.86 1199.09 642.108 1199.09 639.946C1199.09 637.784 1197.17 636.032 1194.8 636.032C1192.44 636.032 1190.52 637.784 1190.52 639.946C1190.52 642.108 1192.44 643.86 1194.8 643.86Z" fill="#EBEBEB" stroke="#EBEBEB" stroke-width="0.5" stroke-miterlimit="10"/>
<path d="M1171.45 680.793C1173.82 680.793 1175.74 679.041 1175.74 676.879C1175.74 674.718 1173.82 672.965 1171.45 672.965C1169.08 672.965 1167.16 674.718 1167.16 676.879C1167.16 679.041 1169.08 680.793 1171.45 680.793Z" fill="#EBEBEB" stroke="#EBEBEB" stroke-width="0.5" stroke-miterlimit="10"/>
<path d="M1124.75 606.927C1127.11 606.927 1129.03 605.175 1129.03 603.013C1129.03 600.851 1127.11 599.099 1124.75 599.099C1122.38 599.099 1120.46 600.851 1120.46 603.013C1120.46 605.175 1122.38 606.927 1124.75 606.927Z" fill="#EBEBEB" stroke="#EBEBEB" stroke-width="0.5" stroke-miterlimit="10"/>
<path d="M1194.8 569.994C1197.17 569.994 1199.09 568.242 1199.09 566.08C1199.09 563.918 1197.17 562.166 1194.8 562.166C1192.44 562.166 1190.52 563.918 1190.52 566.08C1190.52 568.242 1192.44 569.994 1194.8 569.994Z" fill="#EBEBEB" stroke="#EBEBEB" stroke-width="0.5" stroke-miterlimit="10"/>
<path d="M984.64 606.927C987.007 606.927 988.927 605.175 988.927 603.013C988.927 600.851 987.007 599.099 984.64 599.099C982.272 599.099 980.353 600.851 980.353 603.013C980.353 605.175 982.272 606.927 984.64 606.927Z" fill="#EBEBEB" stroke="#EBEBEB" stroke-width="0.5" stroke-miterlimit="10"/>
<path d="M1031.34 606.927C1033.71 606.927 1035.63 605.175 1035.63 603.013C1035.63 600.851 1033.71 599.099 1031.34 599.099C1028.98 599.099 1027.06 600.851 1027.06 603.013C1027.06 605.175 1028.98 606.927 1031.34 606.927Z" fill="#EBEBEB" stroke="#EBEBEB" stroke-width="0.5" stroke-miterlimit="10"/>
<path d="M1054.7 643.86C1057.06 643.86 1058.98 642.108 1058.98 639.946C1058.98 637.784 1057.06 636.032 1054.7 636.032C1052.33 636.032 1050.41 637.784 1050.41 639.946C1050.41 642.108 1052.33 643.86 1054.7 643.86Z" fill="#EBEBEB" stroke="#EBEBEB" stroke-width="0.5" stroke-miterlimit="10"/>
<path d="M961.287 643.86C963.655 643.86 965.574 642.108 965.574 639.946C965.574 637.784 963.655 636.032 961.287 636.032C958.92 636.032 957 637.784 957 639.946C957 642.108 958.92 643.86 961.287 643.86Z" fill="#EBEBEB" stroke="#EBEBEB" stroke-width="0.5" stroke-miterlimit="10"/>
<path d="M1124.75 680.793C1127.11 680.793 1129.03 679.041 1129.03 676.879C1129.03 674.718 1127.11 672.965 1124.75 672.965C1122.38 672.965 1120.46 674.718 1120.46 676.879C1120.46 679.041 1122.38 680.793 1124.75 680.793Z" fill="#EBEBEB" stroke="#EBEBEB" stroke-width="0.5" stroke-miterlimit="10"/>
<path d="M1194.8 643.86C1197.17 643.86 1199.09 642.108 1199.09 639.946C1199.09 637.784 1197.17 636.032 1194.8 636.032C1192.44 636.032 1190.52 637.784 1190.52 639.946C1190.52 642.108 1192.44 643.86 1194.8 643.86Z" fill="#EBEBEB" stroke="#EBEBEB" stroke-width="0.5" stroke-miterlimit="10"/>
<path d="M984.64 680.793C987.007 680.793 988.927 679.041 988.927 676.879C988.927 674.718 987.007 672.965 984.64 672.965C982.272 672.965 980.353 674.718 980.353 676.879C980.353 679.041 982.272 680.793 984.64 680.793Z" fill="#EBEBEB" stroke="#EBEBEB" stroke-width="0.5" stroke-miterlimit="10"/>
<path d="M1031.34 680.793C1033.71 680.793 1035.63 679.041 1035.63 676.879C1035.63 674.718 1033.71 672.965 1031.34 672.965C1028.98 672.965 1027.06 674.718 1027.06 676.879C1027.06 679.041 1028.98 680.793 1031.34 680.793Z" fill="#EBEBEB" stroke="#EBEBEB" stroke-width="0.5" stroke-miterlimit="10"/>
<path d="M961.287 717.719C963.655 717.719 965.574 715.966 965.574 713.805C965.574 711.643 963.655 709.89 961.287 709.89C958.92 709.89 957 711.643 957 713.805C957 715.966 958.92 717.719 961.287 717.719Z" fill="#EBEBEB" stroke="#EBEBEB" stroke-width="0.5" stroke-miterlimit="10"/>
<path d="M1054.7 643.86C1057.06 643.86 1058.98 642.108 1058.98 639.946C1058.98 637.784 1057.06 636.032 1054.7 636.032C1052.33 636.032 1050.41 637.784 1050.41 639.946C1050.41 642.108 1052.33 643.86 1054.7 643.86Z" fill="#EBEBEB" stroke="#EBEBEB" stroke-width="0.5" stroke-miterlimit="10"/>
<path d="M1101.39 643.86C1103.76 643.86 1105.68 642.108 1105.68 639.946C1105.68 637.784 1103.76 636.032 1101.39 636.032C1099.03 636.032 1097.11 637.784 1097.11 639.946C1097.11 642.108 1099.03 643.86 1101.39 643.86Z" fill="#EBEBEB" stroke="#EBEBEB" stroke-width="0.5" stroke-miterlimit="10"/>
<path d="M1124.75 680.793C1127.11 680.793 1129.03 679.041 1129.03 676.879C1129.03 674.718 1127.11 672.965 1124.75 672.965C1122.38 672.965 1120.46 674.718 1120.46 676.879C1120.46 679.041 1122.38 680.793 1124.75 680.793Z" fill="#EBEBEB" stroke="#EBEBEB" stroke-width="0.5" stroke-miterlimit="10"/>
<path d="M1031.34 680.793C1033.71 680.793 1035.63 679.041 1035.63 676.879C1035.63 674.718 1033.71 672.965 1031.34 672.965C1028.98 672.965 1027.06 674.718 1027.06 676.879C1027.06 679.041 1028.98 680.793 1031.34 680.793Z" fill="#EBEBEB" stroke="#EBEBEB" stroke-width="0.5" stroke-miterlimit="10"/>
<path d="M1171.45 606.927C1173.82 606.927 1175.74 605.175 1175.74 603.013C1175.74 600.851 1173.82 599.099 1171.45 599.099C1169.08 599.099 1167.16 600.851 1167.16 603.013C1167.16 605.175 1169.08 606.927 1171.45 606.927Z" fill="#EBEBEB" stroke="#EBEBEB" stroke-width="0.5" stroke-miterlimit="10"/>
<path d="M1194.8 717.719C1197.17 717.719 1199.09 715.966 1199.09 713.805C1199.09 711.643 1197.17 709.89 1194.8 709.89C1192.44 709.89 1190.52 711.643 1190.52 713.805C1190.52 715.966 1192.44 717.719 1194.8 717.719Z" fill="#EBEBEB" stroke="#EBEBEB" stroke-width="0.5" stroke-miterlimit="10"/>
<path d="M1171.45 680.793C1173.82 680.793 1175.74 679.041 1175.74 676.879C1175.74 674.718 1173.82 672.965 1171.45 672.965C1169.08 672.965 1167.16 674.718 1167.16 676.879C1167.16 679.041 1169.08 680.793 1171.45 680.793Z" fill="#EBEBEB" stroke="#EBEBEB" stroke-width="0.5" stroke-miterlimit="10"/>
<path d="M1194.8 717.719C1197.17 717.719 1199.09 715.966 1199.09 713.805C1199.09 711.643 1197.17 709.89 1194.8 709.89C1192.44 709.89 1190.52 711.643 1190.52 713.805C1190.52 715.966 1192.44 717.719 1194.8 717.719Z" fill="#EBEBEB" stroke="#EBEBEB" stroke-width="0.5" stroke-miterlimit="10"/>
<path d="M704.25 459.42C706.617 459.42 708.536 457.667 708.536 455.506C708.536 453.344 706.617 451.591 704.25 451.591C701.882 451.591 699.963 453.344 699.963 455.506C699.963 457.667 701.882 459.42 704.25 459.42Z" fill="#EBEBEB" stroke="#EBEBEB" stroke-width="0.5" stroke-miterlimit="10"/>
<path d="M750.954 459.42C753.321 459.42 755.241 457.667 755.241 455.506C755.241 453.344 753.321 451.591 750.954 451.591C748.586 451.591 746.667 453.344 746.667 455.506C746.667 457.667 748.586 459.42 750.954 459.42Z" fill="#EBEBEB" stroke="#EBEBEB" stroke-width="0.5" stroke-miterlimit="10"/>
<path d="M774.306 496.353C776.674 496.353 778.593 494.6 778.593 492.439C778.593 490.277 776.674 488.525 774.306 488.525C771.939 488.525 770.02 490.277 770.02 492.439C770.02 494.6 771.939 496.353 774.306 496.353Z" fill="#EBEBEB" stroke="#EBEBEB" stroke-width="0.5" stroke-miterlimit="10"/>
<path d="M680.897 496.353C683.265 496.353 685.184 494.6 685.184 492.439C685.184 490.277 683.265 488.525 680.897 488.525C678.53 488.525 676.61 490.277 676.61 492.439C676.61 494.6 678.53 496.353 680.897 496.353Z" fill="#EBEBEB" stroke="#EBEBEB" stroke-width="0.5" stroke-miterlimit="10"/>
<path d="M704.25 533.286C706.617 533.286 708.536 531.534 708.536 529.372C708.536 527.21 706.617 525.458 704.25 525.458C701.882 525.458 699.963 527.21 699.963 529.372C699.963 531.534 701.882 533.286 704.25 533.286Z" fill="#EBEBEB" stroke="#EBEBEB" stroke-width="0.5" stroke-miterlimit="10"/>
<path d="M750.954 533.286C753.321 533.286 755.241 531.534 755.241 529.372C755.241 527.21 753.321 525.458 750.954 525.458C748.586 525.458 746.667 527.21 746.667 529.372C746.667 531.534 748.586 533.286 750.954 533.286Z" fill="#EBEBEB" stroke="#EBEBEB" stroke-width="0.5" stroke-miterlimit="10"/>
<path d="M774.306 422.495C776.674 422.495 778.593 420.742 778.593 418.58C778.593 416.419 776.674 414.666 774.306 414.666C771.939 414.666 770.02 416.419 770.02 418.58C770.02 420.742 771.939 422.495 774.306 422.495Z" fill="#EBEBEB" stroke="#EBEBEB" stroke-width="0.5" stroke-miterlimit="10"/>
<path d="M821.011 422.495C823.379 422.495 825.298 420.742 825.298 418.58C825.298 416.419 823.379 414.666 821.011 414.666C818.644 414.666 816.725 416.419 816.725 418.58C816.725 420.742 818.644 422.495 821.011 422.495Z" fill="#EBEBEB" stroke="#EBEBEB" stroke-width="0.5" stroke-miterlimit="10"/>
<path d="M844.364 459.42C846.731 459.42 848.651 457.667 848.651 455.506C848.651 453.344 846.731 451.591 844.364 451.591C841.996 451.591 840.077 453.344 840.077 455.506C840.077 457.667 841.996 459.42 844.364 459.42Z" fill="#EBEBEB" stroke="#EBEBEB" stroke-width="0.5" stroke-miterlimit="10"/>
<path d="M750.954 459.42C753.321 459.42 755.241 457.667 755.241 455.506C755.241 453.344 753.321 451.591 750.954 451.591C748.586 451.591 746.667 453.344 746.667 455.506C746.667 457.667 748.586 459.42 750.954 459.42Z" fill="#EBEBEB" stroke="#EBEBEB" stroke-width="0.5" stroke-miterlimit="10"/>
<path d="M774.306 496.353C776.674 496.353 778.593 494.6 778.593 492.439C778.593 490.277 776.674 488.525 774.306 488.525C771.939 488.525 770.02 490.277 770.02 492.439C770.02 494.6 771.939 496.353 774.306 496.353Z" fill="#EBEBEB" stroke="#EBEBEB" stroke-width="0.5" stroke-miterlimit="10"/>
<path d="M821.011 496.353C823.379 496.353 825.298 494.6 825.298 492.439C825.298 490.277 823.379 488.525 821.011 488.525C818.644 488.525 816.725 490.277 816.725 492.439C816.725 494.6 818.644 496.353 821.011 496.353Z" fill="#EBEBEB" stroke="#EBEBEB" stroke-width="0.5" stroke-miterlimit="10"/>
<path d="M891.068 385.561C893.436 385.561 895.355 383.809 895.355 381.647C895.355 379.485 893.436 377.733 891.068 377.733C888.701 377.733 886.781 379.485 886.781 381.647C886.781 383.809 888.701 385.561 891.068 385.561Z" fill="#EBEBEB" stroke="#EBEBEB" stroke-width="0.5" stroke-miterlimit="10"/>
<path d="M914.414 422.495C916.781 422.495 918.701 420.742 918.701 418.58C918.701 416.419 916.781 414.666 914.414 414.666C912.046 414.666 910.127 416.419 910.127 418.58C910.127 420.742 912.046 422.495 914.414 422.495Z" fill="#EBEBEB" stroke="#EBEBEB" stroke-width="0.5" stroke-miterlimit="10"/>
<path d="M891.068 459.42C893.436 459.42 895.355 457.667 895.355 455.506C895.355 453.344 893.436 451.591 891.068 451.591C888.701 451.591 886.781 453.344 886.781 455.506C886.781 457.667 888.701 459.42 891.068 459.42Z" fill="#EBEBEB" stroke="#EBEBEB" stroke-width="0.5" stroke-miterlimit="10"/>
<path d="M844.364 385.561C846.731 385.561 848.651 383.809 848.651 381.647C848.651 379.485 846.731 377.733 844.364 377.733C841.996 377.733 840.077 379.485 840.077 381.647C840.077 383.809 841.996 385.561 844.364 385.561Z" fill="#EBEBEB" stroke="#EBEBEB" stroke-width="0.5" stroke-miterlimit="10"/>
<path d="M914.414 348.628C916.781 348.628 918.701 346.876 918.701 344.714C918.701 342.552 916.781 340.8 914.414 340.8C912.046 340.8 910.127 342.552 910.127 344.714C910.127 346.876 912.046 348.628 914.414 348.628Z" fill="#EBEBEB" stroke="#EBEBEB" stroke-width="0.5" stroke-miterlimit="10"/>
<path d="M750.954 385.561C753.321 385.561 755.241 383.809 755.241 381.647C755.241 379.485 753.321 377.733 750.954 377.733C748.586 377.733 746.667 379.485 746.667 381.647C746.667 383.809 748.586 385.561 750.954 385.561Z" fill="#EBEBEB" stroke="#EBEBEB" stroke-width="0.5" stroke-miterlimit="10"/>
<path d="M774.306 422.495C776.674 422.495 778.593 420.742 778.593 418.58C778.593 416.419 776.674 414.666 774.306 414.666C771.939 414.666 770.02 416.419 770.02 418.58C770.02 420.742 771.939 422.495 774.306 422.495Z" fill="#EBEBEB" stroke="#EBEBEB" stroke-width="0.5" stroke-miterlimit="10"/>
<path d="M680.897 422.495C683.265 422.495 685.184 420.742 685.184 418.58C685.184 416.419 683.265 414.666 680.897 414.666C678.53 414.666 676.61 416.419 676.61 418.58C676.61 420.742 678.53 422.495 680.897 422.495Z" fill="#EBEBEB" stroke="#EBEBEB" stroke-width="0.5" stroke-miterlimit="10"/>
<path d="M704.25 459.42C706.617 459.42 708.536 457.667 708.536 455.506C708.536 453.344 706.617 451.591 704.25 451.591C701.882 451.591 699.963 453.344 699.963 455.506C699.963 457.667 701.882 459.42 704.25 459.42Z" fill="#EBEBEB" stroke="#EBEBEB" stroke-width="0.5" stroke-miterlimit="10"/>
<path d="M750.954 459.42C753.321 459.42 755.241 457.667 755.241 455.506C755.241 453.344 753.321 451.591 750.954 451.591C748.586 451.591 746.667 453.344 746.667 455.506C746.667 457.667 748.586 459.42 750.954 459.42Z" fill="#EBEBEB" stroke="#EBEBEB" stroke-width="0.5" stroke-miterlimit="10"/>
<path d="M821.011 348.628C823.379 348.628 825.298 346.876 825.298 344.714C825.298 342.552 823.379 340.8 821.011 340.8C818.644 340.8 816.725 342.552 816.725 344.714C816.725 346.876 818.644 348.628 821.011 348.628Z" fill="#EBEBEB" stroke="#EBEBEB" stroke-width="0.5" stroke-miterlimit="10"/>
<path d="M844.364 385.561C846.731 385.561 848.651 383.809 848.651 381.647C848.651 379.485 846.731 377.733 844.364 377.733C841.996 377.733 840.077 379.485 840.077 381.647C840.077 383.809 841.996 385.561 844.364 385.561Z" fill="#EBEBEB" stroke="#EBEBEB" stroke-width="0.5" stroke-miterlimit="10"/>
<path d="M774.306 422.495C776.674 422.495 778.593 420.742 778.593 418.58C778.593 416.419 776.674 414.666 774.306 414.666C771.939 414.666 770.02 416.419 770.02 418.58C770.02 420.742 771.939 422.495 774.306 422.495Z" fill="#EBEBEB" stroke="#EBEBEB" stroke-width="0.5" stroke-miterlimit="10"/>
<path d="M821.011 422.495C823.379 422.495 825.298 420.742 825.298 418.58C825.298 416.419 823.379 414.666 821.011 414.666C818.644 414.666 816.725 416.419 816.725 418.58C816.725 420.742 818.644 422.495 821.011 422.495Z" fill="#EBEBEB" stroke="#EBEBEB" stroke-width="0.5" stroke-miterlimit="10"/>
<path d="M891.068 311.695C893.436 311.695 895.355 309.943 895.355 307.781C895.355 305.619 893.436 303.867 891.068 303.867C888.701 303.867 886.781 305.619 886.781 307.781C886.781 309.943 888.701 311.695 891.068 311.695Z" fill="#EBEBEB" stroke="#EBEBEB" stroke-width="0.5" stroke-miterlimit="10"/>
<path d="M914.414 348.628C916.781 348.628 918.701 346.876 918.701 344.714C918.701 342.552 916.781 340.8 914.414 340.8C912.046 340.8 910.127 342.552 910.127 344.714C910.127 346.876 912.046 348.628 914.414 348.628Z" fill="#EBEBEB" stroke="#EBEBEB" stroke-width="0.5" stroke-miterlimit="10"/>
<path d="M891.068 385.561C893.436 385.561 895.355 383.809 895.355 381.647C895.355 379.485 893.436 377.733 891.068 377.733C888.701 377.733 886.781 379.485 886.781 381.647C886.781 383.809 888.701 385.561 891.068 385.561Z" fill="#EBEBEB" stroke="#EBEBEB" stroke-width="0.5" stroke-miterlimit="10"/>
<path d="M844.364 311.695C846.731 311.695 848.651 309.943 848.651 307.781C848.651 305.619 846.731 303.867 844.364 303.867C841.996 303.867 840.077 305.619 840.077 307.781C840.077 309.943 841.996 311.695 844.364 311.695Z" fill="#EBEBEB" stroke="#EBEBEB" stroke-width="0.5" stroke-miterlimit="10"/>
<path d="M774.621 717.944C776.988 717.944 778.908 716.191 778.908 714.029C778.908 711.868 776.988 710.115 774.621 710.115C772.253 710.115 770.334 711.868 770.334 714.029C770.334 716.191 772.253 717.944 774.621 717.944Z" fill="#EBEBEB" stroke="#EBEBEB" stroke-width="0.5" stroke-miterlimit="10"/>
<path d="M821.325 717.944C823.692 717.944 825.612 716.191 825.612 714.029C825.612 711.868 823.692 710.115 821.325 710.115C818.957 710.115 817.038 711.868 817.038 714.029C817.038 716.191 818.957 717.944 821.325 717.944Z" fill="#EBEBEB" stroke="#EBEBEB" stroke-width="0.5" stroke-miterlimit="10"/>
<path d="M891.382 681.011C893.75 681.011 895.669 679.258 895.669 677.096C895.669 674.935 893.75 673.182 891.382 673.182C889.015 673.182 887.096 674.935 887.096 677.096C887.096 679.258 889.015 681.011 891.382 681.011Z" fill="#EBEBEB" stroke="#EBEBEB" stroke-width="0.5" stroke-miterlimit="10"/>
<path d="M914.735 717.944C917.103 717.944 919.022 716.191 919.022 714.029C919.022 711.868 917.103 710.115 914.735 710.115C912.367 710.115 910.448 711.868 910.448 714.029C910.448 716.191 912.367 717.944 914.735 717.944Z" fill="#EBEBEB" stroke="#EBEBEB" stroke-width="0.5" stroke-miterlimit="10"/>
<path d="M844.678 681.011C847.046 681.011 848.965 679.258 848.965 677.096C848.965 674.935 847.046 673.182 844.678 673.182C842.311 673.182 840.392 674.935 840.392 677.096C840.392 679.258 842.311 681.011 844.678 681.011Z" fill="#EBEBEB" stroke="#EBEBEB" stroke-width="0.5" stroke-miterlimit="10"/>
<path d="M914.735 644.077C917.103 644.077 919.022 642.325 919.022 640.163C919.022 638.001 917.103 636.249 914.735 636.249C912.367 636.249 910.448 638.001 910.448 640.163C910.448 642.325 912.367 644.077 914.735 644.077Z" fill="#EBEBEB" stroke="#EBEBEB" stroke-width="0.5" stroke-miterlimit="10"/>
<path d="M704.563 681.011C706.931 681.011 708.85 679.258 708.85 677.096C708.85 674.935 706.931 673.182 704.563 673.182C702.196 673.182 700.276 674.935 700.276 677.096C700.276 679.258 702.196 681.011 704.563 681.011Z" fill="#EBEBEB" stroke="#EBEBEB" stroke-width="0.5" stroke-miterlimit="10"/>
<path d="M751.268 681.011C753.636 681.011 755.555 679.258 755.555 677.096C755.555 674.935 753.636 673.182 751.268 673.182C748.901 673.182 746.981 674.935 746.981 677.096C746.981 679.258 748.901 681.011 751.268 681.011Z" fill="#EBEBEB" stroke="#EBEBEB" stroke-width="0.5" stroke-miterlimit="10"/>
<path d="M774.621 717.944C776.988 717.944 778.908 716.191 778.908 714.029C778.908 711.868 776.988 710.115 774.621 710.115C772.253 710.115 770.334 711.868 770.334 714.029C770.334 716.191 772.253 717.944 774.621 717.944Z" fill="#EBEBEB" stroke="#EBEBEB" stroke-width="0.5" stroke-miterlimit="10"/>
<path d="M681.211 717.944C683.578 717.944 685.497 716.191 685.497 714.029C685.497 711.868 683.578 710.115 681.211 710.115C678.843 710.115 676.924 711.868 676.924 714.029C676.924 716.191 678.843 717.944 681.211 717.944Z" fill="#EBEBEB" stroke="#EBEBEB" stroke-width="0.5" stroke-miterlimit="10"/>
<path d="M774.621 644.077C776.988 644.077 778.908 642.325 778.908 640.163C778.908 638.001 776.988 636.249 774.621 636.249C772.253 636.249 770.334 638.001 770.334 640.163C770.334 642.325 772.253 644.077 774.621 644.077Z" fill="#EBEBEB" stroke="#EBEBEB" stroke-width="0.5" stroke-miterlimit="10"/>
<path d="M821.325 644.077C823.692 644.077 825.612 642.325 825.612 640.163C825.612 638.001 823.692 636.249 821.325 636.249C818.957 636.249 817.038 638.001 817.038 640.163C817.038 642.325 818.957 644.077 821.325 644.077Z" fill="#EBEBEB" stroke="#EBEBEB" stroke-width="0.5" stroke-miterlimit="10"/>
<path d="M844.678 681.011C847.046 681.011 848.965 679.258 848.965 677.096C848.965 674.935 847.046 673.182 844.678 673.182C842.311 673.182 840.392 674.935 840.392 677.096C840.392 679.258 842.311 681.011 844.678 681.011Z" fill="#EBEBEB" stroke="#EBEBEB" stroke-width="0.5" stroke-miterlimit="10"/>
<path d="M751.268 681.011C753.636 681.011 755.555 679.258 755.555 677.096C755.555 674.935 753.636 673.182 751.268 673.182C748.901 673.182 746.981 674.935 746.981 677.096C746.981 679.258 748.901 681.011 751.268 681.011Z" fill="#EBEBEB" stroke="#EBEBEB" stroke-width="0.5" stroke-miterlimit="10"/>
<path d="M774.621 717.944C776.988 717.944 778.908 716.191 778.908 714.029C778.908 711.868 776.988 710.115 774.621 710.115C772.253 710.115 770.334 711.868 770.334 714.029C770.334 716.191 772.253 717.944 774.621 717.944Z" fill="#EBEBEB" stroke="#EBEBEB" stroke-width="0.5" stroke-miterlimit="10"/>
<path d="M821.325 717.944C823.692 717.944 825.612 716.191 825.612 714.029C825.612 711.868 823.692 710.115 821.325 710.115C818.957 710.115 817.038 711.868 817.038 714.029C817.038 716.191 818.957 717.944 821.325 717.944Z" fill="#EBEBEB" stroke="#EBEBEB" stroke-width="0.5" stroke-miterlimit="10"/>
<path d="M891.382 607.144C893.75 607.144 895.669 605.392 895.669 603.23C895.669 601.068 893.75 599.316 891.382 599.316C889.015 599.316 887.096 601.068 887.096 603.23C887.096 605.392 889.015 607.144 891.382 607.144Z" fill="#EBEBEB" stroke="#EBEBEB" stroke-width="0.5" stroke-miterlimit="10"/>
<path d="M914.735 644.077C917.103 644.077 919.022 642.325 919.022 640.163C919.022 638.001 917.103 636.249 914.735 636.249C912.367 636.249 910.448 638.001 910.448 640.163C910.448 642.325 912.367 644.077 914.735 644.077Z" fill="#EBEBEB" stroke="#EBEBEB" stroke-width="0.5" stroke-miterlimit="10"/>
<path d="M891.382 681.011C893.75 681.011 895.669 679.258 895.669 677.096C895.669 674.935 893.75 673.182 891.382 673.182C889.015 673.182 887.096 674.935 887.096 677.096C887.096 679.258 889.015 681.011 891.382 681.011Z" fill="#EBEBEB" stroke="#EBEBEB" stroke-width="0.5" stroke-miterlimit="10"/>
<path d="M914.735 570.219C917.103 570.219 919.022 568.467 919.022 566.305C919.022 564.143 917.103 562.391 914.735 562.391C912.367 562.391 910.448 564.143 910.448 566.305C910.448 568.467 912.367 570.219 914.735 570.219Z" fill="#EBEBEB" stroke="#EBEBEB" stroke-width="0.5" stroke-miterlimit="10"/>
<path d="M1264.71 681.011C1267.08 681.011 1268.99 679.258 1268.99 677.096C1268.99 674.935 1267.08 673.182 1264.71 673.182C1262.34 673.182 1260.42 674.935 1260.42 677.096C1260.42 679.258 1262.34 681.011 1264.71 681.011Z" fill="#EBEBEB" stroke="#EBEBEB" stroke-width="0.5" stroke-miterlimit="10"/>
<path d="M1311.41 681.011C1313.78 681.011 1315.7 679.258 1315.7 677.096C1315.7 674.935 1313.78 673.182 1311.41 673.182C1309.04 673.182 1307.13 674.935 1307.13 677.096C1307.13 679.258 1309.04 681.011 1311.41 681.011Z" fill="#EBEBEB" stroke="#EBEBEB" stroke-width="0.5" stroke-miterlimit="10"/>
<path d="M1334.76 717.944C1337.13 717.944 1339.05 716.191 1339.05 714.029C1339.05 711.868 1337.13 710.115 1334.76 710.115C1332.4 710.115 1330.48 711.868 1330.48 714.029C1330.48 716.191 1332.4 717.944 1334.76 717.944Z" fill="#EBEBEB" stroke="#EBEBEB" stroke-width="0.5" stroke-miterlimit="10"/>
<path d="M1241.36 717.944C1243.72 717.944 1245.64 716.191 1245.64 714.029C1245.64 711.868 1243.72 710.115 1241.36 710.115C1238.99 710.115 1237.07 711.868 1237.07 714.029C1237.07 716.191 1238.99 717.944 1241.36 717.944Z" fill="#EBEBEB" stroke="#EBEBEB" stroke-width="0.5" stroke-miterlimit="10"/>
<path d="M1334.76 644.077C1337.13 644.077 1339.05 642.325 1339.05 640.163C1339.05 638.001 1337.13 636.249 1334.76 636.249C1332.4 636.249 1330.48 638.001 1330.48 640.163C1330.48 642.325 1332.4 644.077 1334.76 644.077Z" fill="#EBEBEB" stroke="#EBEBEB" stroke-width="0.5" stroke-miterlimit="10"/>
<path d="M1381.47 644.077C1383.84 644.077 1385.76 642.325 1385.76 640.163C1385.76 638.001 1383.84 636.249 1381.47 636.249C1379.1 636.249 1377.18 638.001 1377.18 640.163C1377.18 642.325 1379.1 644.077 1381.47 644.077Z" fill="#EBEBEB" stroke="#EBEBEB" stroke-width="0.5" stroke-miterlimit="10"/>
<path d="M1404.82 681.011C1407.19 681.011 1409.11 679.258 1409.11 677.096C1409.11 674.935 1407.19 673.182 1404.82 673.182C1402.45 673.182 1400.54 674.935 1400.54 677.096C1400.54 679.258 1402.45 681.011 1404.82 681.011Z" fill="#EBEBEB" stroke="#EBEBEB" stroke-width="0.5" stroke-miterlimit="10"/>
<path d="M1311.41 681.011C1313.78 681.011 1315.7 679.258 1315.7 677.096C1315.7 674.935 1313.78 673.182 1311.41 673.182C1309.04 673.182 1307.13 674.935 1307.13 677.096C1307.13 679.258 1309.04 681.011 1311.41 681.011Z" fill="#EBEBEB" stroke="#EBEBEB" stroke-width="0.5" stroke-miterlimit="10"/>
<path d="M1334.76 717.944C1337.13 717.944 1339.05 716.191 1339.05 714.029C1339.05 711.868 1337.13 710.115 1334.76 710.115C1332.4 710.115 1330.48 711.868 1330.48 714.029C1330.48 716.191 1332.4 717.944 1334.76 717.944Z" fill="#EBEBEB" stroke="#EBEBEB" stroke-width="0.5" stroke-miterlimit="10"/>
<path d="M1381.47 717.944C1383.84 717.944 1385.76 716.191 1385.76 714.029C1385.76 711.868 1383.84 710.115 1381.47 710.115C1379.1 710.115 1377.18 711.868 1377.18 714.029C1377.18 716.191 1379.1 717.944 1381.47 717.944Z" fill="#EBEBEB" stroke="#EBEBEB" stroke-width="0.5" stroke-miterlimit="10"/>
<path d="M1404.82 607.144C1407.19 607.144 1409.11 605.392 1409.11 603.23C1409.11 601.068 1407.19 599.316 1404.82 599.316C1402.45 599.316 1400.54 601.068 1400.54 603.23C1400.54 605.392 1402.45 607.144 1404.82 607.144Z" fill="#EBEBEB" stroke="#EBEBEB" stroke-width="0.5" stroke-miterlimit="10"/>
<path d="M1264.71 607.144C1267.08 607.144 1268.99 605.392 1268.99 603.23C1268.99 601.068 1267.08 599.316 1264.71 599.316C1262.34 599.316 1260.42 601.068 1260.42 603.23C1260.42 605.392 1262.34 607.144 1264.71 607.144Z" fill="#EBEBEB" stroke="#EBEBEB" stroke-width="0.5" stroke-miterlimit="10"/>
<path d="M1311.41 607.144C1313.78 607.144 1315.7 605.392 1315.7 603.23C1315.7 601.068 1313.78 599.316 1311.41 599.316C1309.04 599.316 1307.13 601.068 1307.13 603.23C1307.13 605.392 1309.04 607.144 1311.41 607.144Z" fill="#EBEBEB" stroke="#EBEBEB" stroke-width="0.5" stroke-miterlimit="10"/>
<path d="M1334.76 644.077C1337.13 644.077 1339.05 642.325 1339.05 640.163C1339.05 638.001 1337.13 636.249 1334.76 636.249C1332.4 636.249 1330.48 638.001 1330.48 640.163C1330.48 642.325 1332.4 644.077 1334.76 644.077Z" fill="#EBEBEB" stroke="#EBEBEB" stroke-width="0.5" stroke-miterlimit="10"/>
<path d="M1241.36 644.077C1243.72 644.077 1245.64 642.325 1245.64 640.163C1245.64 638.001 1243.72 636.249 1241.36 636.249C1238.99 636.249 1237.07 638.001 1237.07 640.163C1237.07 642.325 1238.99 644.077 1241.36 644.077Z" fill="#EBEBEB" stroke="#EBEBEB" stroke-width="0.5" stroke-miterlimit="10"/>
<path d="M1264.71 681.011C1267.08 681.011 1268.99 679.258 1268.99 677.096C1268.99 674.935 1267.08 673.182 1264.71 673.182C1262.34 673.182 1260.42 674.935 1260.42 677.096C1260.42 679.258 1262.34 681.011 1264.71 681.011Z" fill="#EBEBEB" stroke="#EBEBEB" stroke-width="0.5" stroke-miterlimit="10"/>
<path d="M1311.41 681.011C1313.78 681.011 1315.7 679.258 1315.7 677.096C1315.7 674.935 1313.78 673.182 1311.41 673.182C1309.04 673.182 1307.13 674.935 1307.13 677.096C1307.13 679.258 1309.04 681.011 1311.41 681.011Z" fill="#EBEBEB" stroke="#EBEBEB" stroke-width="0.5" stroke-miterlimit="10"/>
<path d="M1334.76 570.219C1337.13 570.219 1339.05 568.467 1339.05 566.305C1339.05 564.143 1337.13 562.391 1334.76 562.391C1332.4 562.391 1330.48 564.143 1330.48 566.305C1330.48 568.467 1332.4 570.219 1334.76 570.219Z" fill="#EBEBEB" stroke="#EBEBEB" stroke-width="0.5" stroke-miterlimit="10"/>
<path d="M1381.47 570.219C1383.84 570.219 1385.76 568.467 1385.76 566.305C1385.76 564.143 1383.84 562.391 1381.47 562.391C1379.1 562.391 1377.18 564.143 1377.18 566.305C1377.18 568.467 1379.1 570.219 1381.47 570.219Z" fill="#EBEBEB" stroke="#EBEBEB" stroke-width="0.5" stroke-miterlimit="10"/>
<path d="M1404.82 607.144C1407.19 607.144 1409.11 605.392 1409.11 603.23C1409.11 601.068 1407.19 599.316 1404.82 599.316C1402.45 599.316 1400.54 601.068 1400.54 603.23C1400.54 605.392 1402.45 607.144 1404.82 607.144Z" fill="#EBEBEB" stroke="#EBEBEB" stroke-width="0.5" stroke-miterlimit="10"/>
<path d="M1311.41 607.144C1313.78 607.144 1315.7 605.392 1315.7 603.23C1315.7 601.068 1313.78 599.316 1311.41 599.316C1309.04 599.316 1307.13 601.068 1307.13 603.23C1307.13 605.392 1309.04 607.144 1311.41 607.144Z" fill="#EBEBEB" stroke="#EBEBEB" stroke-width="0.5" stroke-miterlimit="10"/>
<path d="M1334.76 644.077C1337.13 644.077 1339.05 642.325 1339.05 640.163C1339.05 638.001 1337.13 636.249 1334.76 636.249C1332.4 636.249 1330.48 638.001 1330.48 640.163C1330.48 642.325 1332.4 644.077 1334.76 644.077Z" fill="#EBEBEB" stroke="#EBEBEB" stroke-width="0.5" stroke-miterlimit="10"/>
<path d="M1381.47 644.077C1383.84 644.077 1385.76 642.325 1385.76 640.163C1385.76 638.001 1383.84 636.249 1381.47 636.249C1379.1 636.249 1377.18 638.001 1377.18 640.163C1377.18 642.325 1379.1 644.077 1381.47 644.077Z" fill="#EBEBEB" stroke="#EBEBEB" stroke-width="0.5" stroke-miterlimit="10"/>
<path d="M1404.82 533.286C1407.19 533.286 1409.11 531.534 1409.11 529.372C1409.11 527.21 1407.19 525.458 1404.82 525.458C1402.45 525.458 1400.54 527.21 1400.54 529.372C1400.54 531.534 1402.45 533.286 1404.82 533.286Z" fill="#EBEBEB" stroke="#EBEBEB" stroke-width="0.5" stroke-miterlimit="10"/>
<path d="M1264.71 533.286C1267.08 533.286 1268.99 531.534 1268.99 529.372C1268.99 527.21 1267.08 525.458 1264.71 525.458C1262.34 525.458 1260.42 527.21 1260.42 529.372C1260.42 531.534 1262.34 533.286 1264.71 533.286Z" fill="#EBEBEB" stroke="#EBEBEB" stroke-width="0.5" stroke-miterlimit="10"/>
<path d="M1311.41 533.286C1313.78 533.286 1315.7 531.534 1315.7 529.372C1315.7 527.21 1313.78 525.458 1311.41 525.458C1309.04 525.458 1307.13 527.21 1307.13 529.372C1307.13 531.534 1309.04 533.286 1311.41 533.286Z" fill="#EBEBEB" stroke="#EBEBEB" stroke-width="0.5" stroke-miterlimit="10"/>
<path d="M1334.76 570.219C1337.13 570.219 1339.05 568.467 1339.05 566.305C1339.05 564.143 1337.13 562.391 1334.76 562.391C1332.4 562.391 1330.48 564.143 1330.48 566.305C1330.48 568.467 1332.4 570.219 1334.76 570.219Z" fill="#EBEBEB" stroke="#EBEBEB" stroke-width="0.5" stroke-miterlimit="10"/>
<path d="M1241.36 570.219C1243.72 570.219 1245.64 568.467 1245.64 566.305C1245.64 564.143 1243.72 562.391 1241.36 562.391C1238.99 562.391 1237.07 564.143 1237.07 566.305C1237.07 568.467 1238.99 570.219 1241.36 570.219Z" fill="#EBEBEB" stroke="#EBEBEB" stroke-width="0.5" stroke-miterlimit="10"/>
<path d="M1264.71 607.144C1267.08 607.144 1268.99 605.392 1268.99 603.23C1268.99 601.068 1267.08 599.316 1264.71 599.316C1262.34 599.316 1260.42 601.068 1260.42 603.23C1260.42 605.392 1262.34 607.144 1264.71 607.144Z" fill="#EBEBEB" stroke="#EBEBEB" stroke-width="0.5" stroke-miterlimit="10"/>
<path d="M1311.41 607.144C1313.78 607.144 1315.7 605.392 1315.7 603.23C1315.7 601.068 1313.78 599.316 1311.41 599.316C1309.04 599.316 1307.13 601.068 1307.13 603.23C1307.13 605.392 1309.04 607.144 1311.41 607.144Z" fill="#EBEBEB" stroke="#EBEBEB" stroke-width="0.5" stroke-miterlimit="10"/>
<path d="M1334.76 496.353C1337.13 496.353 1339.05 494.6 1339.05 492.439C1339.05 490.277 1337.13 488.525 1334.76 488.525C1332.4 488.525 1330.48 490.277 1330.48 492.439C1330.48 494.6 1332.4 496.353 1334.76 496.353Z" fill="#EBEBEB" stroke="#EBEBEB" stroke-width="0.5" stroke-miterlimit="10"/>
<path d="M1381.47 496.353C1383.84 496.353 1385.76 494.6 1385.76 492.439C1385.76 490.277 1383.84 488.525 1381.47 488.525C1379.1 488.525 1377.18 490.277 1377.18 492.439C1377.18 494.6 1379.1 496.353 1381.47 496.353Z" fill="#EBEBEB" stroke="#EBEBEB" stroke-width="0.5" stroke-miterlimit="10"/>
<path d="M1404.82 533.286C1407.19 533.286 1409.11 531.534 1409.11 529.372C1409.11 527.21 1407.19 525.458 1404.82 525.458C1402.45 525.458 1400.54 527.21 1400.54 529.372C1400.54 531.534 1402.45 533.286 1404.82 533.286Z" fill="#EBEBEB" stroke="#EBEBEB" stroke-width="0.5" stroke-miterlimit="10"/>
<path d="M1311.41 533.286C1313.78 533.286 1315.7 531.534 1315.7 529.372C1315.7 527.21 1313.78 525.458 1311.41 525.458C1309.04 525.458 1307.13 527.21 1307.13 529.372C1307.13 531.534 1309.04 533.286 1311.41 533.286Z" fill="#EBEBEB" stroke="#EBEBEB" stroke-width="0.5" stroke-miterlimit="10"/>
<path d="M1334.76 570.219C1337.13 570.219 1339.05 568.467 1339.05 566.305C1339.05 564.143 1337.13 562.391 1334.76 562.391C1332.4 562.391 1330.48 564.143 1330.48 566.305C1330.48 568.467 1332.4 570.219 1334.76 570.219Z" fill="#EBEBEB" stroke="#EBEBEB" stroke-width="0.5" stroke-miterlimit="10"/>
<path d="M1381.47 570.219C1383.84 570.219 1385.76 568.467 1385.76 566.305C1385.76 564.143 1383.84 562.391 1381.47 562.391C1379.1 562.391 1377.18 564.143 1377.18 566.305C1377.18 568.467 1379.1 570.219 1381.47 570.219Z" fill="#EBEBEB" stroke="#EBEBEB" stroke-width="0.5" stroke-miterlimit="10"/>
<path d="M1404.82 459.42C1407.19 459.42 1409.11 457.667 1409.11 455.506C1409.11 453.344 1407.19 451.591 1404.82 451.591C1402.45 451.591 1400.54 453.344 1400.54 455.506C1400.54 457.667 1402.45 459.42 1404.82 459.42Z" fill="#EBEBEB" stroke="#EBEBEB" stroke-width="0.5" stroke-miterlimit="10"/>
<path d="M1264.71 459.42C1267.08 459.42 1268.99 457.667 1268.99 455.506C1268.99 453.344 1267.08 451.591 1264.71 451.591C1262.34 451.591 1260.42 453.344 1260.42 455.506C1260.42 457.667 1262.34 459.42 1264.71 459.42Z" fill="#EBEBEB" stroke="#EBEBEB" stroke-width="0.5" stroke-miterlimit="10"/>
<path d="M1311.41 459.42C1313.78 459.42 1315.7 457.667 1315.7 455.506C1315.7 453.344 1313.78 451.591 1311.41 451.591C1309.04 451.591 1307.13 453.344 1307.13 455.506C1307.13 457.667 1309.04 459.42 1311.41 459.42Z" fill="#EBEBEB" stroke="#EBEBEB" stroke-width="0.5" stroke-miterlimit="10"/>
<path d="M1334.76 496.353C1337.13 496.353 1339.05 494.6 1339.05 492.439C1339.05 490.277 1337.13 488.525 1334.76 488.525C1332.4 488.525 1330.48 490.277 1330.48 492.439C1330.48 494.6 1332.4 496.353 1334.76 496.353Z" fill="#EBEBEB" stroke="#EBEBEB" stroke-width="0.5" stroke-miterlimit="10"/>
<path d="M1241.36 496.353C1243.72 496.353 1245.64 494.6 1245.64 492.439C1245.64 490.277 1243.72 488.525 1241.36 488.525C1238.99 488.525 1237.07 490.277 1237.07 492.439C1237.07 494.6 1238.99 496.353 1241.36 496.353Z" fill="#EBEBEB" stroke="#EBEBEB" stroke-width="0.5" stroke-miterlimit="10"/>
<path d="M1264.71 533.286C1267.08 533.286 1268.99 531.534 1268.99 529.372C1268.99 527.21 1267.08 525.458 1264.71 525.458C1262.34 525.458 1260.42 527.21 1260.42 529.372C1260.42 531.534 1262.34 533.286 1264.71 533.286Z" fill="#EBEBEB" stroke="#EBEBEB" stroke-width="0.5" stroke-miterlimit="10"/>
<path d="M1311.41 533.286C1313.78 533.286 1315.7 531.534 1315.7 529.372C1315.7 527.21 1313.78 525.458 1311.41 525.458C1309.04 525.458 1307.13 527.21 1307.13 529.372C1307.13 531.534 1309.04 533.286 1311.41 533.286Z" fill="#EBEBEB" stroke="#EBEBEB" stroke-width="0.5" stroke-miterlimit="10"/>
<path d="M1334.76 422.495C1337.13 422.495 1339.05 420.742 1339.05 418.58C1339.05 416.419 1337.13 414.666 1334.76 414.666C1332.4 414.666 1330.48 416.419 1330.48 418.58C1330.48 420.742 1332.4 422.495 1334.76 422.495Z" fill="#EBEBEB" stroke="#EBEBEB" stroke-width="0.5" stroke-miterlimit="10"/>
<path d="M1381.47 422.495C1383.84 422.495 1385.76 420.742 1385.76 418.58C1385.76 416.419 1383.84 414.666 1381.47 414.666C1379.1 414.666 1377.18 416.419 1377.18 418.58C1377.18 420.742 1379.1 422.495 1381.47 422.495Z" fill="#EBEBEB" stroke="#EBEBEB" stroke-width="0.5" stroke-miterlimit="10"/>
<path d="M1404.82 459.42C1407.19 459.42 1409.11 457.667 1409.11 455.506C1409.11 453.344 1407.19 451.591 1404.82 451.591C1402.45 451.591 1400.54 453.344 1400.54 455.506C1400.54 457.667 1402.45 459.42 1404.82 459.42Z" fill="#EBEBEB" stroke="#EBEBEB" stroke-width="0.5" stroke-miterlimit="10"/>
<path d="M1311.41 459.42C1313.78 459.42 1315.7 457.667 1315.7 455.506C1315.7 453.344 1313.78 451.591 1311.41 451.591C1309.04 451.591 1307.13 453.344 1307.13 455.506C1307.13 457.667 1309.04 459.42 1311.41 459.42Z" fill="#EBEBEB" stroke="#EBEBEB" stroke-width="0.5" stroke-miterlimit="10"/>
<path d="M1334.76 496.353C1337.13 496.353 1339.05 494.6 1339.05 492.439C1339.05 490.277 1337.13 488.525 1334.76 488.525C1332.4 488.525 1330.48 490.277 1330.48 492.439C1330.48 494.6 1332.4 496.353 1334.76 496.353Z" fill="#EBEBEB" stroke="#EBEBEB" stroke-width="0.5" stroke-miterlimit="10"/>
<path d="M1381.47 496.353C1383.84 496.353 1385.76 494.6 1385.76 492.439C1385.76 490.277 1383.84 488.525 1381.47 488.525C1379.1 488.525 1377.18 490.277 1377.18 492.439C1377.18 494.6 1379.1 496.353 1381.47 496.353Z" fill="#EBEBEB" stroke="#EBEBEB" stroke-width="0.5" stroke-miterlimit="10"/>
<path d="M984.47 533.069C986.838 533.069 988.757 531.317 988.757 529.155C988.757 526.993 986.838 525.241 984.47 525.241C982.103 525.241 980.184 526.993 980.184 529.155C980.184 531.317 982.103 533.069 984.47 533.069Z" fill="#EBEBEB" stroke="#EBEBEB" stroke-width="0.5" stroke-miterlimit="10"/>
<path d="M1031.18 533.069C1033.54 533.069 1035.46 531.317 1035.46 529.155C1035.46 526.993 1033.54 525.241 1031.18 525.241C1028.81 525.241 1026.89 526.993 1026.89 529.155C1026.89 531.317 1028.81 533.069 1031.18 533.069Z" fill="#EBEBEB" stroke="#EBEBEB" stroke-width="0.5" stroke-miterlimit="10"/>
<path d="M1054.53 569.994C1056.89 569.994 1058.81 568.242 1058.81 566.08C1058.81 563.918 1056.89 562.166 1054.53 562.166C1052.16 562.166 1050.24 563.918 1050.24 566.08C1050.24 568.242 1052.16 569.994 1054.53 569.994Z" fill="#EBEBEB" stroke="#EBEBEB" stroke-width="0.5" stroke-miterlimit="10"/>
<path d="M961.118 569.994C963.485 569.994 965.405 568.242 965.405 566.08C965.405 563.918 963.485 562.166 961.118 562.166C958.75 562.166 956.831 563.918 956.831 566.08C956.831 568.242 958.75 569.994 961.118 569.994Z" fill="#EBEBEB" stroke="#EBEBEB" stroke-width="0.5" stroke-miterlimit="10"/>
<path d="M984.47 606.927C986.838 606.927 988.757 605.175 988.757 603.013C988.757 600.851 986.838 599.099 984.47 599.099C982.103 599.099 980.184 600.851 980.184 603.013C980.184 605.175 982.103 606.927 984.47 606.927Z" fill="#EBEBEB" stroke="#EBEBEB" stroke-width="0.5" stroke-miterlimit="10"/>
<path d="M1031.18 606.927C1033.54 606.927 1035.46 605.175 1035.46 603.013C1035.46 600.851 1033.54 599.099 1031.18 599.099C1028.81 599.099 1026.89 600.851 1026.89 603.013C1026.89 605.175 1028.81 606.927 1031.18 606.927Z" fill="#EBEBEB" stroke="#EBEBEB" stroke-width="0.5" stroke-miterlimit="10"/>
<path d="M1054.53 496.136C1056.89 496.136 1058.81 494.383 1058.81 492.222C1058.81 490.06 1056.89 488.307 1054.53 488.307C1052.16 488.307 1050.24 490.06 1050.24 492.222C1050.24 494.383 1052.16 496.136 1054.53 496.136Z" fill="#EBEBEB" stroke="#EBEBEB" stroke-width="0.5" stroke-miterlimit="10"/>
<path d="M1101.23 496.136C1103.6 496.136 1105.52 494.383 1105.52 492.222C1105.52 490.06 1103.6 488.307 1101.23 488.307C1098.86 488.307 1096.95 490.06 1096.95 492.222C1096.95 494.383 1098.86 496.136 1101.23 496.136Z" fill="#EBEBEB" stroke="#EBEBEB" stroke-width="0.5" stroke-miterlimit="10"/>
<path d="M1124.58 533.069C1126.95 533.069 1128.87 531.317 1128.87 529.155C1128.87 526.993 1126.95 525.241 1124.58 525.241C1122.22 525.241 1120.3 526.993 1120.3 529.155C1120.3 531.317 1122.22 533.069 1124.58 533.069Z" fill="#EBEBEB" stroke="#EBEBEB" stroke-width="0.5" stroke-miterlimit="10"/>
<path d="M1031.18 533.069C1033.54 533.069 1035.46 531.317 1035.46 529.155C1035.46 526.993 1033.54 525.241 1031.18 525.241C1028.81 525.241 1026.89 526.993 1026.89 529.155C1026.89 531.317 1028.81 533.069 1031.18 533.069Z" fill="#EBEBEB" stroke="#EBEBEB" stroke-width="0.5" stroke-miterlimit="10"/>
<path d="M1054.53 569.994C1056.89 569.994 1058.81 568.242 1058.81 566.08C1058.81 563.918 1056.89 562.166 1054.53 562.166C1052.16 562.166 1050.24 563.918 1050.24 566.08C1050.24 568.242 1052.16 569.994 1054.53 569.994Z" fill="#EBEBEB" stroke="#EBEBEB" stroke-width="0.5" stroke-miterlimit="10"/>
<path d="M1101.23 569.994C1103.6 569.994 1105.52 568.242 1105.52 566.08C1105.52 563.918 1103.6 562.166 1101.23 562.166C1098.86 562.166 1096.95 563.918 1096.95 566.08C1096.95 568.242 1098.86 569.994 1101.23 569.994Z" fill="#EBEBEB" stroke="#EBEBEB" stroke-width="0.5" stroke-miterlimit="10"/>
<path d="M1171.29 459.203C1173.66 459.203 1175.58 457.45 1175.58 455.289C1175.58 453.127 1173.66 451.374 1171.29 451.374C1168.92 451.374 1167 453.127 1167 455.289C1167 457.45 1168.92 459.203 1171.29 459.203Z" fill="#EBEBEB" stroke="#EBEBEB" stroke-width="0.5" stroke-miterlimit="10"/>
<path d="M1194.64 496.136C1197.01 496.136 1198.93 494.383 1198.93 492.222C1198.93 490.06 1197.01 488.307 1194.64 488.307C1192.27 488.307 1190.35 490.06 1190.35 492.222C1190.35 494.383 1192.27 496.136 1194.64 496.136Z" fill="#EBEBEB" stroke="#EBEBEB" stroke-width="0.5" stroke-miterlimit="10"/>
<path d="M1171.29 533.069C1173.66 533.069 1175.58 531.317 1175.58 529.155C1175.58 526.993 1173.66 525.241 1171.29 525.241C1168.92 525.241 1167 526.993 1167 529.155C1167 531.317 1168.92 533.069 1171.29 533.069Z" fill="#EBEBEB" stroke="#EBEBEB" stroke-width="0.5" stroke-miterlimit="10"/>
<path d="M1241.34 422.278C1243.71 422.278 1245.63 420.525 1245.63 418.363C1245.63 416.202 1243.71 414.449 1241.34 414.449C1238.97 414.449 1237.05 416.202 1237.05 418.363C1237.05 420.525 1238.97 422.278 1241.34 422.278Z" fill="#EBEBEB" stroke="#EBEBEB" stroke-width="0.5" stroke-miterlimit="10"/>
<path d="M1264.69 459.203C1267.06 459.203 1268.98 457.45 1268.98 455.289C1268.98 453.127 1267.06 451.374 1264.69 451.374C1262.32 451.374 1260.4 453.127 1260.4 455.289C1260.4 457.45 1262.32 459.203 1264.69 459.203Z" fill="#EBEBEB" stroke="#EBEBEB" stroke-width="0.5" stroke-miterlimit="10"/>
<path d="M1241.34 496.136C1243.71 496.136 1245.63 494.383 1245.63 492.222C1245.63 490.06 1243.71 488.307 1241.34 488.307C1238.97 488.307 1237.05 490.06 1237.05 492.222C1237.05 494.383 1238.97 496.136 1241.34 496.136Z" fill="#EBEBEB" stroke="#EBEBEB" stroke-width="0.5" stroke-miterlimit="10"/>
<path d="M1311.4 385.344C1313.76 385.344 1315.68 383.592 1315.68 381.43C1315.68 379.268 1313.76 377.516 1311.4 377.516C1309.03 377.516 1307.11 379.268 1307.11 381.43C1307.11 383.592 1309.03 385.344 1311.4 385.344Z" fill="#EBEBEB" stroke="#EBEBEB" stroke-width="0.5" stroke-miterlimit="10"/>
<path d="M1334.75 422.278C1337.12 422.278 1339.03 420.525 1339.03 418.363C1339.03 416.202 1337.12 414.449 1334.75 414.449C1332.38 414.449 1330.46 416.202 1330.46 418.363C1330.46 420.525 1332.38 422.278 1334.75 422.278Z" fill="#EBEBEB" stroke="#EBEBEB" stroke-width="0.5" stroke-miterlimit="10"/>
<path d="M1311.4 459.203C1313.76 459.203 1315.68 457.45 1315.68 455.289C1315.68 453.127 1313.76 451.374 1311.4 451.374C1309.03 451.374 1307.11 453.127 1307.11 455.289C1307.11 457.45 1309.03 459.203 1311.4 459.203Z" fill="#EBEBEB" stroke="#EBEBEB" stroke-width="0.5" stroke-miterlimit="10"/>
<path d="M1381.45 348.411C1383.82 348.411 1385.74 346.659 1385.74 344.497C1385.74 342.335 1383.82 340.583 1381.45 340.583C1379.09 340.583 1377.17 342.335 1377.17 344.497C1377.17 346.659 1379.09 348.411 1381.45 348.411Z" fill="#EBEBEB" stroke="#EBEBEB" stroke-width="0.5" stroke-miterlimit="10"/>
<path d="M1381.45 422.278C1383.82 422.278 1385.74 420.525 1385.74 418.363C1385.74 416.202 1383.82 414.449 1381.45 414.449C1379.09 414.449 1377.17 416.202 1377.17 418.363C1377.17 420.525 1379.09 422.278 1381.45 422.278Z" fill="#EBEBEB" stroke="#EBEBEB" stroke-width="0.5" stroke-miterlimit="10"/>
<path d="M1124.58 459.203C1126.95 459.203 1128.87 457.45 1128.87 455.289C1128.87 453.127 1126.95 451.374 1124.58 451.374C1122.22 451.374 1120.3 453.127 1120.3 455.289C1120.3 457.45 1122.22 459.203 1124.58 459.203Z" fill="#EBEBEB" stroke="#EBEBEB" stroke-width="0.5" stroke-miterlimit="10"/>
<path d="M1194.64 422.278C1197.01 422.278 1198.93 420.525 1198.93 418.363C1198.93 416.202 1197.01 414.449 1194.64 414.449C1192.27 414.449 1190.35 416.202 1190.35 418.363C1190.35 420.525 1192.27 422.278 1194.64 422.278Z" fill="#EBEBEB" stroke="#EBEBEB" stroke-width="0.5" stroke-miterlimit="10"/>
<path d="M1264.69 385.344C1267.06 385.344 1268.98 383.592 1268.98 381.43C1268.98 379.268 1267.06 377.516 1264.69 377.516C1262.32 377.516 1260.4 379.268 1260.4 381.43C1260.4 383.592 1262.32 385.344 1264.69 385.344Z" fill="#EBEBEB" stroke="#EBEBEB" stroke-width="0.5" stroke-miterlimit="10"/>
<path d="M984.47 459.203C986.838 459.203 988.757 457.45 988.757 455.289C988.757 453.127 986.838 451.374 984.47 451.374C982.103 451.374 980.184 453.127 980.184 455.289C980.184 457.45 982.103 459.203 984.47 459.203Z" fill="#EBEBEB" stroke="#EBEBEB" stroke-width="0.5" stroke-miterlimit="10"/>
<path d="M1031.18 459.203C1033.54 459.203 1035.46 457.45 1035.46 455.289C1035.46 453.127 1033.54 451.374 1031.18 451.374C1028.81 451.374 1026.89 453.127 1026.89 455.289C1026.89 457.45 1028.81 459.203 1031.18 459.203Z" fill="#EBEBEB" stroke="#EBEBEB" stroke-width="0.5" stroke-miterlimit="10"/>
<path d="M1054.53 496.136C1056.89 496.136 1058.81 494.383 1058.81 492.222C1058.81 490.06 1056.89 488.307 1054.53 488.307C1052.16 488.307 1050.24 490.06 1050.24 492.222C1050.24 494.383 1052.16 496.136 1054.53 496.136Z" fill="#EBEBEB" stroke="#EBEBEB" stroke-width="0.5" stroke-miterlimit="10"/>
<path d="M961.118 496.136C963.485 496.136 965.405 494.383 965.405 492.222C965.405 490.06 963.485 488.307 961.118 488.307C958.75 488.307 956.831 490.06 956.831 492.222C956.831 494.383 958.75 496.136 961.118 496.136Z" fill="#EBEBEB" stroke="#EBEBEB" stroke-width="0.5" stroke-miterlimit="10"/>
<path d="M984.47 533.069C986.838 533.069 988.757 531.317 988.757 529.155C988.757 526.993 986.838 525.241 984.47 525.241C982.103 525.241 980.184 526.993 980.184 529.155C980.184 531.317 982.103 533.069 984.47 533.069Z" fill="#EBEBEB" stroke="#EBEBEB" stroke-width="0.5" stroke-miterlimit="10"/>
<path d="M1031.18 533.069C1033.54 533.069 1035.46 531.317 1035.46 529.155C1035.46 526.993 1033.54 525.241 1031.18 525.241C1028.81 525.241 1026.89 526.993 1026.89 529.155C1026.89 531.317 1028.81 533.069 1031.18 533.069Z" fill="#EBEBEB" stroke="#EBEBEB" stroke-width="0.5" stroke-miterlimit="10"/>
<path d="M1054.53 422.278C1056.89 422.278 1058.81 420.525 1058.81 418.363C1058.81 416.202 1056.89 414.449 1054.53 414.449C1052.16 414.449 1050.24 416.202 1050.24 418.363C1050.24 420.525 1052.16 422.278 1054.53 422.278Z" fill="#EBEBEB" stroke="#EBEBEB" stroke-width="0.5" stroke-miterlimit="10"/>
<path d="M1101.23 422.278C1103.6 422.278 1105.52 420.525 1105.52 418.363C1105.52 416.202 1103.6 414.449 1101.23 414.449C1098.86 414.449 1096.95 416.202 1096.95 418.363C1096.95 420.525 1098.86 422.278 1101.23 422.278Z" fill="#EBEBEB" stroke="#EBEBEB" stroke-width="0.5" stroke-miterlimit="10"/>
<path d="M1124.58 459.203C1126.95 459.203 1128.87 457.45 1128.87 455.289C1128.87 453.127 1126.95 451.374 1124.58 451.374C1122.22 451.374 1120.3 453.127 1120.3 455.289C1120.3 457.45 1122.22 459.203 1124.58 459.203Z" fill="#EBEBEB" stroke="#EBEBEB" stroke-width="0.5" stroke-miterlimit="10"/>
<path d="M1031.18 459.203C1033.54 459.203 1035.46 457.45 1035.46 455.289C1035.46 453.127 1033.54 451.374 1031.18 451.374C1028.81 451.374 1026.89 453.127 1026.89 455.289C1026.89 457.45 1028.81 459.203 1031.18 459.203Z" fill="#EBEBEB" stroke="#EBEBEB" stroke-width="0.5" stroke-miterlimit="10"/>
<path d="M1054.53 496.136C1056.89 496.136 1058.81 494.383 1058.81 492.222C1058.81 490.06 1056.89 488.307 1054.53 488.307C1052.16 488.307 1050.24 490.06 1050.24 492.222C1050.24 494.383 1052.16 496.136 1054.53 496.136Z" fill="#EBEBEB" stroke="#EBEBEB" stroke-width="0.5" stroke-miterlimit="10"/>
<path d="M1101.23 496.136C1103.6 496.136 1105.52 494.383 1105.52 492.222C1105.52 490.06 1103.6 488.307 1101.23 488.307C1098.86 488.307 1096.95 490.06 1096.95 492.222C1096.95 494.383 1098.86 496.136 1101.23 496.136Z" fill="#EBEBEB" stroke="#EBEBEB" stroke-width="0.5" stroke-miterlimit="10"/>
<path d="M1194.64 422.278C1197.01 422.278 1198.93 420.525 1198.93 418.363C1198.93 416.202 1197.01 414.449 1194.64 414.449C1192.27 414.449 1190.35 416.202 1190.35 418.363C1190.35 420.525 1192.27 422.278 1194.64 422.278Z" fill="#EBEBEB" stroke="#EBEBEB" stroke-width="0.5" stroke-miterlimit="10"/>
<path d="M1171.29 459.203C1173.66 459.203 1175.58 457.45 1175.58 455.289C1175.58 453.127 1173.66 451.374 1171.29 451.374C1168.92 451.374 1167 453.127 1167 455.289C1167 457.45 1168.92 459.203 1171.29 459.203Z" fill="#EBEBEB" stroke="#EBEBEB" stroke-width="0.5" stroke-miterlimit="10"/>
<path d="M1241.34 348.411C1243.71 348.411 1245.63 346.659 1245.63 344.497C1245.63 342.335 1243.71 340.583 1241.34 340.583C1238.97 340.583 1237.05 342.335 1237.05 344.497C1237.05 346.659 1238.97 348.411 1241.34 348.411Z" fill="#EBEBEB" stroke="#EBEBEB" stroke-width="0.5" stroke-miterlimit="10"/>
<path d="M1264.69 385.344C1267.06 385.344 1268.98 383.592 1268.98 381.43C1268.98 379.268 1267.06 377.516 1264.69 377.516C1262.32 377.516 1260.4 379.268 1260.4 381.43C1260.4 383.592 1262.32 385.344 1264.69 385.344Z" fill="#EBEBEB" stroke="#EBEBEB" stroke-width="0.5" stroke-miterlimit="10"/>
<path d="M1241.34 422.278C1243.71 422.278 1245.63 420.525 1245.63 418.363C1245.63 416.202 1243.71 414.449 1241.34 414.449C1238.97 414.449 1237.05 416.202 1237.05 418.363C1237.05 420.525 1238.97 422.278 1241.34 422.278Z" fill="#EBEBEB" stroke="#EBEBEB" stroke-width="0.5" stroke-miterlimit="10"/>
<path d="M1311.4 311.478C1313.76 311.478 1315.68 309.726 1315.68 307.564C1315.68 305.402 1313.76 303.65 1311.4 303.65C1309.03 303.65 1307.11 305.402 1307.11 307.564C1307.11 309.726 1309.03 311.478 1311.4 311.478Z" fill="#EBEBEB" stroke="#EBEBEB" stroke-width="0.5" stroke-miterlimit="10"/>
<path d="M1334.75 348.411C1337.12 348.411 1339.03 346.659 1339.03 344.497C1339.03 342.335 1337.12 340.583 1334.75 340.583C1332.38 340.583 1330.46 342.335 1330.46 344.497C1330.46 346.659 1332.38 348.411 1334.75 348.411Z" fill="#EBEBEB" stroke="#EBEBEB" stroke-width="0.5" stroke-miterlimit="10"/>
<path d="M1311.4 385.344C1313.76 385.344 1315.68 383.592 1315.68 381.43C1315.68 379.268 1313.76 377.516 1311.4 377.516C1309.03 377.516 1307.11 379.268 1307.11 381.43C1307.11 383.592 1309.03 385.344 1311.4 385.344Z" fill="#EBEBEB" stroke="#EBEBEB" stroke-width="0.5" stroke-miterlimit="10"/>
<path d="M1381.45 274.553C1383.82 274.553 1385.74 272.8 1385.74 270.639C1385.74 268.477 1383.82 266.725 1381.45 266.725C1379.09 266.725 1377.17 268.477 1377.17 270.639C1377.17 272.8 1379.09 274.553 1381.45 274.553Z" fill="#EBEBEB" stroke="#EBEBEB" stroke-width="0.5" stroke-miterlimit="10"/>
<path d="M1404.8 311.478C1407.17 311.478 1409.09 309.726 1409.09 307.564C1409.09 305.402 1407.17 303.65 1404.8 303.65C1402.44 303.65 1400.52 305.402 1400.52 307.564C1400.52 309.726 1402.44 311.478 1404.8 311.478Z" fill="#EBEBEB" stroke="#EBEBEB" stroke-width="0.5" stroke-miterlimit="10"/>
<path d="M1381.45 348.411C1383.82 348.411 1385.74 346.659 1385.74 344.497C1385.74 342.335 1383.82 340.583 1381.45 340.583C1379.09 340.583 1377.17 342.335 1377.17 344.497C1377.17 346.659 1379.09 348.411 1381.45 348.411Z" fill="#EBEBEB" stroke="#EBEBEB" stroke-width="0.5" stroke-miterlimit="10"/>
<path d="M1124.58 385.344C1126.95 385.344 1128.87 383.592 1128.87 381.43C1128.87 379.268 1126.95 377.516 1124.58 377.516C1122.22 377.516 1120.3 379.268 1120.3 381.43C1120.3 383.592 1122.22 385.344 1124.58 385.344Z" fill="#EBEBEB" stroke="#EBEBEB" stroke-width="0.5" stroke-miterlimit="10"/>
<path d="M1264.69 311.478C1267.06 311.478 1268.98 309.726 1268.98 307.564C1268.98 305.402 1267.06 303.65 1264.69 303.65C1262.32 303.65 1260.4 305.402 1260.4 307.564C1260.4 309.726 1262.32 311.478 1264.69 311.478Z" fill="#EBEBEB" stroke="#EBEBEB" stroke-width="0.5" stroke-miterlimit="10"/>
<path d="M984.47 385.344C986.838 385.344 988.757 383.592 988.757 381.43C988.757 379.268 986.838 377.516 984.47 377.516C982.103 377.516 980.184 379.268 980.184 381.43C980.184 383.592 982.103 385.344 984.47 385.344Z" fill="#EBEBEB" stroke="#EBEBEB" stroke-width="0.5" stroke-miterlimit="10"/>
<path d="M1031.18 385.344C1033.54 385.344 1035.46 383.592 1035.46 381.43C1035.46 379.268 1033.54 377.516 1031.18 377.516C1028.81 377.516 1026.89 379.268 1026.89 381.43C1026.89 383.592 1028.81 385.344 1031.18 385.344Z" fill="#EBEBEB" stroke="#EBEBEB" stroke-width="0.5" stroke-miterlimit="10"/>
<path d="M1054.53 422.278C1056.89 422.278 1058.81 420.525 1058.81 418.363C1058.81 416.202 1056.89 414.449 1054.53 414.449C1052.16 414.449 1050.24 416.202 1050.24 418.363C1050.24 420.525 1052.16 422.278 1054.53 422.278Z" fill="#EBEBEB" stroke="#EBEBEB" stroke-width="0.5" stroke-miterlimit="10"/>
<path d="M961.118 422.278C963.485 422.278 965.405 420.525 965.405 418.363C965.405 416.202 963.485 414.449 961.118 414.449C958.75 414.449 956.831 416.202 956.831 418.363C956.831 420.525 958.75 422.278 961.118 422.278Z" fill="#EBEBEB" stroke="#EBEBEB" stroke-width="0.5" stroke-miterlimit="10"/>
<path d="M984.47 459.203C986.838 459.203 988.757 457.45 988.757 455.289C988.757 453.127 986.838 451.374 984.47 451.374C982.103 451.374 980.184 453.127 980.184 455.289C980.184 457.45 982.103 459.203 984.47 459.203Z" fill="#EBEBEB" stroke="#EBEBEB" stroke-width="0.5" stroke-miterlimit="10"/>
<path d="M1031.18 459.203C1033.54 459.203 1035.46 457.45 1035.46 455.289C1035.46 453.127 1033.54 451.374 1031.18 451.374C1028.81 451.374 1026.89 453.127 1026.89 455.289C1026.89 457.45 1028.81 459.203 1031.18 459.203Z" fill="#EBEBEB" stroke="#EBEBEB" stroke-width="0.5" stroke-miterlimit="10"/>
<path d="M1054.53 348.411C1056.89 348.411 1058.81 346.659 1058.81 344.497C1058.81 342.335 1056.89 340.583 1054.53 340.583C1052.16 340.583 1050.24 342.335 1050.24 344.497C1050.24 346.659 1052.16 348.411 1054.53 348.411Z" fill="#EBEBEB" stroke="#EBEBEB" stroke-width="0.5" stroke-miterlimit="10"/>
<path d="M1101.23 348.411C1103.6 348.411 1105.52 346.659 1105.52 344.497C1105.52 342.335 1103.6 340.583 1101.23 340.583C1098.86 340.583 1096.95 342.335 1096.95 344.497C1096.95 346.659 1098.86 348.411 1101.23 348.411Z" fill="#EBEBEB" stroke="#EBEBEB" stroke-width="0.5" stroke-miterlimit="10"/>
<path d="M1124.58 385.344C1126.95 385.344 1128.87 383.592 1128.87 381.43C1128.87 379.268 1126.95 377.516 1124.58 377.516C1122.22 377.516 1120.3 379.268 1120.3 381.43C1120.3 383.592 1122.22 385.344 1124.58 385.344Z" fill="#EBEBEB" stroke="#EBEBEB" stroke-width="0.5" stroke-miterlimit="10"/>
<path d="M1031.18 385.344C1033.54 385.344 1035.46 383.592 1035.46 381.43C1035.46 379.268 1033.54 377.516 1031.18 377.516C1028.81 377.516 1026.89 379.268 1026.89 381.43C1026.89 383.592 1028.81 385.344 1031.18 385.344Z" fill="#EBEBEB" stroke="#EBEBEB" stroke-width="0.5" stroke-miterlimit="10"/>
<path d="M1054.53 422.278C1056.89 422.278 1058.81 420.525 1058.81 418.363C1058.81 416.202 1056.89 414.449 1054.53 414.449C1052.16 414.449 1050.24 416.202 1050.24 418.363C1050.24 420.525 1052.16 422.278 1054.53 422.278Z" fill="#EBEBEB" stroke="#EBEBEB" stroke-width="0.5" stroke-miterlimit="10"/>
<path d="M1101.23 422.278C1103.6 422.278 1105.52 420.525 1105.52 418.363C1105.52 416.202 1103.6 414.449 1101.23 414.449C1098.86 414.449 1096.95 416.202 1096.95 418.363C1096.95 420.525 1098.86 422.278 1101.23 422.278Z" fill="#EBEBEB" stroke="#EBEBEB" stroke-width="0.5" stroke-miterlimit="10"/>
<path d="M1171.29 311.478C1173.66 311.478 1175.58 309.726 1175.58 307.564C1175.58 305.402 1173.66 303.65 1171.29 303.65C1168.92 303.65 1167 305.402 1167 307.564C1167 309.726 1168.92 311.478 1171.29 311.478Z" fill="#EBEBEB" stroke="#EBEBEB" stroke-width="0.5" stroke-miterlimit="10"/>
<path d="M1241.34 274.553C1243.71 274.553 1245.63 272.8 1245.63 270.639C1245.63 268.477 1243.71 266.725 1241.34 266.725C1238.97 266.725 1237.05 268.477 1237.05 270.639C1237.05 272.8 1238.97 274.553 1241.34 274.553Z" fill="#EBEBEB" stroke="#EBEBEB" stroke-width="0.5" stroke-miterlimit="10"/>
<path d="M1264.69 311.478C1267.06 311.478 1268.98 309.726 1268.98 307.564C1268.98 305.402 1267.06 303.65 1264.69 303.65C1262.32 303.65 1260.4 305.402 1260.4 307.564C1260.4 309.726 1262.32 311.478 1264.69 311.478Z" fill="#EBEBEB" stroke="#EBEBEB" stroke-width="0.5" stroke-miterlimit="10"/>
<path d="M1241.34 348.411C1243.71 348.411 1245.63 346.659 1245.63 344.497C1245.63 342.335 1243.71 340.583 1241.34 340.583C1238.97 340.583 1237.05 342.335 1237.05 344.497C1237.05 346.659 1238.97 348.411 1241.34 348.411Z" fill="#EBEBEB" stroke="#EBEBEB" stroke-width="0.5" stroke-miterlimit="10"/>
<path d="M1311.4 237.62C1313.76 237.62 1315.68 235.867 1315.68 233.706C1315.68 231.544 1313.76 229.791 1311.4 229.791C1309.03 229.791 1307.11 231.544 1307.11 233.706C1307.11 235.867 1309.03 237.62 1311.4 237.62Z" fill="#EBEBEB" stroke="#EBEBEB" stroke-width="0.5" stroke-miterlimit="10"/>
<path d="M1334.75 274.553C1337.12 274.553 1339.03 272.8 1339.03 270.639C1339.03 268.477 1337.12 266.725 1334.75 266.725C1332.38 266.725 1330.46 268.477 1330.46 270.639C1330.46 272.8 1332.38 274.553 1334.75 274.553Z" fill="#EBEBEB" stroke="#EBEBEB" stroke-width="0.5" stroke-miterlimit="10"/>
<path d="M1311.4 311.478C1313.76 311.478 1315.68 309.726 1315.68 307.564C1315.68 305.402 1313.76 303.65 1311.4 303.65C1309.03 303.65 1307.11 305.402 1307.11 307.564C1307.11 309.726 1309.03 311.478 1311.4 311.478Z" fill="#EBEBEB" stroke="#EBEBEB" stroke-width="0.5" stroke-miterlimit="10"/>
<path d="M1381.45 200.687C1383.82 200.687 1385.74 198.934 1385.74 196.773C1385.74 194.611 1383.82 192.858 1381.45 192.858C1379.09 192.858 1377.17 194.611 1377.17 196.773C1377.17 198.934 1379.09 200.687 1381.45 200.687Z" fill="#EBEBEB" stroke="#EBEBEB" stroke-width="0.5" stroke-miterlimit="10"/>
<path d="M1404.8 237.62C1407.17 237.62 1409.09 235.867 1409.09 233.706C1409.09 231.544 1407.17 229.791 1404.8 229.791C1402.44 229.791 1400.52 231.544 1400.52 233.706C1400.52 235.867 1402.44 237.62 1404.8 237.62Z" fill="#EBEBEB" stroke="#EBEBEB" stroke-width="0.5" stroke-miterlimit="10"/>
<path d="M1381.45 274.553C1383.82 274.553 1385.74 272.8 1385.74 270.639C1385.74 268.477 1383.82 266.725 1381.45 266.725C1379.09 266.725 1377.17 268.477 1377.17 270.639C1377.17 272.8 1379.09 274.553 1381.45 274.553Z" fill="#EBEBEB" stroke="#EBEBEB" stroke-width="0.5" stroke-miterlimit="10"/>
<path d="M1124.58 311.478C1126.95 311.478 1128.87 309.726 1128.87 307.564C1128.87 305.402 1126.95 303.65 1124.58 303.65C1122.22 303.65 1120.3 305.402 1120.3 307.564C1120.3 309.726 1122.22 311.478 1124.58 311.478Z" fill="#EBEBEB" stroke="#EBEBEB" stroke-width="0.5" stroke-miterlimit="10"/>
<path d="M1194.64 274.553C1197.01 274.553 1198.93 272.8 1198.93 270.639C1198.93 268.477 1197.01 266.725 1194.64 266.725C1192.27 266.725 1190.35 268.477 1190.35 270.639C1190.35 272.8 1192.27 274.553 1194.64 274.553Z" fill="#EBEBEB" stroke="#EBEBEB" stroke-width="0.5" stroke-miterlimit="10"/>
<path d="M1264.69 237.62C1267.06 237.62 1268.98 235.867 1268.98 233.706C1268.98 231.544 1267.06 229.791 1264.69 229.791C1262.32 229.791 1260.4 231.544 1260.4 233.706C1260.4 235.867 1262.32 237.62 1264.69 237.62Z" fill="#EBEBEB" stroke="#EBEBEB" stroke-width="0.5" stroke-miterlimit="10"/>
<path d="M984.47 311.478C986.838 311.478 988.757 309.726 988.757 307.564C988.757 305.402 986.838 303.65 984.47 303.65C982.103 303.65 980.184 305.402 980.184 307.564C980.184 309.726 982.103 311.478 984.47 311.478Z" fill="#EBEBEB" stroke="#EBEBEB" stroke-width="0.5" stroke-miterlimit="10"/>
<path d="M1031.18 311.478C1033.54 311.478 1035.46 309.726 1035.46 307.564C1035.46 305.402 1033.54 303.65 1031.18 303.65C1028.81 303.65 1026.89 305.402 1026.89 307.564C1026.89 309.726 1028.81 311.478 1031.18 311.478Z" fill="#EBEBEB" stroke="#EBEBEB" stroke-width="0.5" stroke-miterlimit="10"/>
<path d="M1054.53 348.411C1056.89 348.411 1058.81 346.659 1058.81 344.497C1058.81 342.335 1056.89 340.583 1054.53 340.583C1052.16 340.583 1050.24 342.335 1050.24 344.497C1050.24 346.659 1052.16 348.411 1054.53 348.411Z" fill="#EBEBEB" stroke="#EBEBEB" stroke-width="0.5" stroke-miterlimit="10"/>
<path d="M961.118 348.411C963.485 348.411 965.405 346.659 965.405 344.497C965.405 342.335 963.485 340.583 961.118 340.583C958.75 340.583 956.831 342.335 956.831 344.497C956.831 346.659 958.75 348.411 961.118 348.411Z" fill="#EBEBEB" stroke="#EBEBEB" stroke-width="0.5" stroke-miterlimit="10"/>
<path d="M984.47 385.344C986.838 385.344 988.757 383.592 988.757 381.43C988.757 379.268 986.838 377.516 984.47 377.516C982.103 377.516 980.184 379.268 980.184 381.43C980.184 383.592 982.103 385.344 984.47 385.344Z" fill="#EBEBEB" stroke="#EBEBEB" stroke-width="0.5" stroke-miterlimit="10"/>
<path d="M1031.18 385.344C1033.54 385.344 1035.46 383.592 1035.46 381.43C1035.46 379.268 1033.54 377.516 1031.18 377.516C1028.81 377.516 1026.89 379.268 1026.89 381.43C1026.89 383.592 1028.81 385.344 1031.18 385.344Z" fill="#EBEBEB" stroke="#EBEBEB" stroke-width="0.5" stroke-miterlimit="10"/>
<path d="M1054.53 274.553C1056.89 274.553 1058.81 272.8 1058.81 270.639C1058.81 268.477 1056.89 266.725 1054.53 266.725C1052.16 266.725 1050.24 268.477 1050.24 270.639C1050.24 272.8 1052.16 274.553 1054.53 274.553Z" fill="#EBEBEB" stroke="#EBEBEB" stroke-width="0.5" stroke-miterlimit="10"/>
<path d="M1101.23 274.553C1103.6 274.553 1105.52 272.8 1105.52 270.639C1105.52 268.477 1103.6 266.725 1101.23 266.725C1098.86 266.725 1096.95 268.477 1096.95 270.639C1096.95 272.8 1098.86 274.553 1101.23 274.553Z" fill="#EBEBEB" stroke="#EBEBEB" stroke-width="0.5" stroke-miterlimit="10"/>
<path d="M1124.58 311.478C1126.95 311.478 1128.87 309.726 1128.87 307.564C1128.87 305.402 1126.95 303.65 1124.58 303.65C1122.22 303.65 1120.3 305.402 1120.3 307.564C1120.3 309.726 1122.22 311.478 1124.58 311.478Z" fill="#EBEBEB" stroke="#EBEBEB" stroke-width="0.5" stroke-miterlimit="10"/>
<path d="M1031.18 311.478C1033.54 311.478 1035.46 309.726 1035.46 307.564C1035.46 305.402 1033.54 303.65 1031.18 303.65C1028.81 303.65 1026.89 305.402 1026.89 307.564C1026.89 309.726 1028.81 311.478 1031.18 311.478Z" fill="#EBEBEB" stroke="#EBEBEB" stroke-width="0.5" stroke-miterlimit="10"/>
<path d="M1054.53 348.411C1056.89 348.411 1058.81 346.659 1058.81 344.497C1058.81 342.335 1056.89 340.583 1054.53 340.583C1052.16 340.583 1050.24 342.335 1050.24 344.497C1050.24 346.659 1052.16 348.411 1054.53 348.411Z" fill="#EBEBEB" stroke="#EBEBEB" stroke-width="0.5" stroke-miterlimit="10"/>
<path d="M1101.23 348.411C1103.6 348.411 1105.52 346.659 1105.52 344.497C1105.52 342.335 1103.6 340.583 1101.23 340.583C1098.86 340.583 1096.95 342.335 1096.95 344.497C1096.95 346.659 1098.86 348.411 1101.23 348.411Z" fill="#EBEBEB" stroke="#EBEBEB" stroke-width="0.5" stroke-miterlimit="10"/>
<path d="M1171.29 237.62C1173.66 237.62 1175.58 235.867 1175.58 233.706C1175.58 231.544 1173.66 229.791 1171.29 229.791C1168.92 229.791 1167 231.544 1167 233.706C1167 235.867 1168.92 237.62 1171.29 237.62Z" fill="#EBEBEB" stroke="#EBEBEB" stroke-width="0.5" stroke-miterlimit="10"/>
<path d="M1194.64 274.553C1197.01 274.553 1198.93 272.8 1198.93 270.639C1198.93 268.477 1197.01 266.725 1194.64 266.725C1192.27 266.725 1190.35 268.477 1190.35 270.639C1190.35 272.8 1192.27 274.553 1194.64 274.553Z" fill="#EBEBEB" stroke="#EBEBEB" stroke-width="0.5" stroke-miterlimit="10"/>
<path d="M1171.29 311.478C1173.66 311.478 1175.58 309.726 1175.58 307.564C1175.58 305.402 1173.66 303.65 1171.29 303.65C1168.92 303.65 1167 305.402 1167 307.564C1167 309.726 1168.92 311.478 1171.29 311.478Z" fill="#EBEBEB" stroke="#EBEBEB" stroke-width="0.5" stroke-miterlimit="10"/>
<path d="M1241.34 200.687C1243.71 200.687 1245.63 198.934 1245.63 196.773C1245.63 194.611 1243.71 192.858 1241.34 192.858C1238.97 192.858 1237.05 194.611 1237.05 196.773C1237.05 198.934 1238.97 200.687 1241.34 200.687Z" fill="#EBEBEB" stroke="#EBEBEB" stroke-width="0.5" stroke-miterlimit="10"/>
<path d="M1264.69 237.62C1267.06 237.62 1268.98 235.867 1268.98 233.706C1268.98 231.544 1267.06 229.791 1264.69 229.791C1262.32 229.791 1260.4 231.544 1260.4 233.706C1260.4 235.867 1262.32 237.62 1264.69 237.62Z" fill="#EBEBEB" stroke="#EBEBEB" stroke-width="0.5" stroke-miterlimit="10"/>
<path d="M1241.34 274.553C1243.71 274.553 1245.63 272.8 1245.63 270.639C1245.63 268.477 1243.71 266.725 1241.34 266.725C1238.97 266.725 1237.05 268.477 1237.05 270.639C1237.05 272.8 1238.97 274.553 1241.34 274.553Z" fill="#EBEBEB" stroke="#EBEBEB" stroke-width="0.5" stroke-miterlimit="10"/>
<path d="M1311.4 163.754C1313.76 163.754 1315.68 162.001 1315.68 159.839C1315.68 157.678 1313.76 155.925 1311.4 155.925C1309.03 155.925 1307.11 157.678 1307.11 159.839C1307.11 162.001 1309.03 163.754 1311.4 163.754Z" fill="#EBEBEB" stroke="#EBEBEB" stroke-width="0.5" stroke-miterlimit="10"/>
<path d="M1334.75 200.687C1337.12 200.687 1339.03 198.934 1339.03 196.773C1339.03 194.611 1337.12 192.858 1334.75 192.858C1332.38 192.858 1330.46 194.611 1330.46 196.773C1330.46 198.934 1332.38 200.687 1334.75 200.687Z" fill="#EBEBEB" stroke="#EBEBEB" stroke-width="0.5" stroke-miterlimit="10"/>
<path d="M1311.4 237.62C1313.76 237.62 1315.68 235.867 1315.68 233.706C1315.68 231.544 1313.76 229.791 1311.4 229.791C1309.03 229.791 1307.11 231.544 1307.11 233.706C1307.11 235.867 1309.03 237.62 1311.4 237.62Z" fill="#EBEBEB" stroke="#EBEBEB" stroke-width="0.5" stroke-miterlimit="10"/>
<path d="M1381.45 126.828C1383.82 126.828 1385.74 125.076 1385.74 122.914C1385.74 120.752 1383.82 119 1381.45 119C1379.09 119 1377.17 120.752 1377.17 122.914C1377.17 125.076 1379.09 126.828 1381.45 126.828Z" fill="#EBEBEB" stroke="#EBEBEB" stroke-width="0.5" stroke-miterlimit="10"/>
<path d="M1404.8 163.754C1407.17 163.754 1409.09 162.001 1409.09 159.839C1409.09 157.678 1407.17 155.925 1404.8 155.925C1402.44 155.925 1400.52 157.678 1400.52 159.839C1400.52 162.001 1402.44 163.754 1404.8 163.754Z" fill="#EBEBEB" stroke="#EBEBEB" stroke-width="0.5" stroke-miterlimit="10"/>
<path d="M1381.45 200.687C1383.82 200.687 1385.74 198.934 1385.74 196.773C1385.74 194.611 1383.82 192.858 1381.45 192.858C1379.09 192.858 1377.17 194.611 1377.17 196.773C1377.17 198.934 1379.09 200.687 1381.45 200.687Z" fill="#EBEBEB" stroke="#EBEBEB" stroke-width="0.5" stroke-miterlimit="10"/>
<path d="M1124.58 237.62C1126.95 237.62 1128.87 235.867 1128.87 233.706C1128.87 231.544 1126.95 229.791 1124.58 229.791C1122.22 229.791 1120.3 231.544 1120.3 233.706C1120.3 235.867 1122.22 237.62 1124.58 237.62Z" fill="#EBEBEB" stroke="#EBEBEB" stroke-width="0.5" stroke-miterlimit="10"/>
<path d="M1264.69 163.754C1267.06 163.754 1268.98 162.001 1268.98 159.839C1268.98 157.678 1267.06 155.925 1264.69 155.925C1262.32 155.925 1260.4 157.678 1260.4 159.839C1260.4 162.001 1262.32 163.754 1264.69 163.754Z" fill="#EBEBEB" stroke="#EBEBEB" stroke-width="0.5" stroke-miterlimit="10"/>
<path d="M704.25 607.144C706.617 607.144 708.536 605.392 708.536 603.23C708.536 601.068 706.617 599.316 704.25 599.316C701.882 599.316 699.963 601.068 699.963 603.23C699.963 605.392 701.882 607.144 704.25 607.144Z" fill="#EBEBEB" stroke="#EBEBEB" stroke-width="0.5" stroke-miterlimit="10"/>
<path d="M750.954 607.144C753.321 607.144 755.241 605.392 755.241 603.23C755.241 601.068 753.321 599.316 750.954 599.316C748.586 599.316 746.667 601.068 746.667 603.23C746.667 605.392 748.586 607.144 750.954 607.144Z" fill="#EBEBEB" stroke="#EBEBEB" stroke-width="0.5" stroke-miterlimit="10"/>
<path d="M774.306 644.077C776.674 644.077 778.593 642.325 778.593 640.163C778.593 638.001 776.674 636.249 774.306 636.249C771.939 636.249 770.02 638.001 770.02 640.163C770.02 642.325 771.939 644.077 774.306 644.077Z" fill="#EBEBEB" stroke="#EBEBEB" stroke-width="0.5" stroke-miterlimit="10"/>
<path d="M680.897 644.077C683.265 644.077 685.184 642.325 685.184 640.163C685.184 638.001 683.265 636.249 680.897 636.249C678.53 636.249 676.61 638.001 676.61 640.163C676.61 642.325 678.53 644.077 680.897 644.077Z" fill="#EBEBEB" stroke="#EBEBEB" stroke-width="0.5" stroke-miterlimit="10"/>
<path d="M704.25 681.011C706.617 681.011 708.536 679.258 708.536 677.096C708.536 674.935 706.617 673.182 704.25 673.182C701.882 673.182 699.963 674.935 699.963 677.096C699.963 679.258 701.882 681.011 704.25 681.011Z" fill="#EBEBEB" stroke="#EBEBEB" stroke-width="0.5" stroke-miterlimit="10"/>
<path d="M750.954 681.011C753.321 681.011 755.241 679.258 755.241 677.096C755.241 674.935 753.321 673.182 750.954 673.182C748.586 673.182 746.667 674.935 746.667 677.096C746.667 679.258 748.586 681.011 750.954 681.011Z" fill="#EBEBEB" stroke="#EBEBEB" stroke-width="0.5" stroke-miterlimit="10"/>
<path d="M774.306 570.219C776.674 570.219 778.593 568.467 778.593 566.305C778.593 564.143 776.674 562.391 774.306 562.391C771.939 562.391 770.02 564.143 770.02 566.305C770.02 568.467 771.939 570.219 774.306 570.219Z" fill="#EBEBEB" stroke="#EBEBEB" stroke-width="0.5" stroke-miterlimit="10"/>
<path d="M750.954 607.144C753.321 607.144 755.241 605.392 755.241 603.23C755.241 601.068 753.321 599.316 750.954 599.316C748.586 599.316 746.667 601.068 746.667 603.23C746.667 605.392 748.586 607.144 750.954 607.144Z" fill="#EBEBEB" stroke="#EBEBEB" stroke-width="0.5" stroke-miterlimit="10"/>
<path d="M774.306 644.077C776.674 644.077 778.593 642.325 778.593 640.163C778.593 638.001 776.674 636.249 774.306 636.249C771.939 636.249 770.02 638.001 770.02 640.163C770.02 642.325 771.939 644.077 774.306 644.077Z" fill="#EBEBEB" stroke="#EBEBEB" stroke-width="0.5" stroke-miterlimit="10"/>
<path d="M821.011 644.077C823.379 644.077 825.298 642.325 825.298 640.163C825.298 638.001 823.379 636.249 821.011 636.249C818.644 636.249 816.725 638.001 816.725 640.163C816.725 642.325 818.644 644.077 821.011 644.077Z" fill="#EBEBEB" stroke="#EBEBEB" stroke-width="0.5" stroke-miterlimit="10"/>
<path d="M891.068 533.286C893.436 533.286 895.355 531.534 895.355 529.372C895.355 527.21 893.436 525.458 891.068 525.458C888.701 525.458 886.781 527.21 886.781 529.372C886.781 531.534 888.701 533.286 891.068 533.286Z" fill="#EBEBEB" stroke="#EBEBEB" stroke-width="0.5" stroke-miterlimit="10"/>
<path d="M914.414 570.219C916.781 570.219 918.701 568.467 918.701 566.305C918.701 564.143 916.781 562.391 914.414 562.391C912.046 562.391 910.127 564.143 910.127 566.305C910.127 568.467 912.046 570.219 914.414 570.219Z" fill="#EBEBEB" stroke="#EBEBEB" stroke-width="0.5" stroke-miterlimit="10"/>
<path d="M891.068 607.144C893.436 607.144 895.355 605.392 895.355 603.23C895.355 601.068 893.436 599.316 891.068 599.316C888.701 599.316 886.781 601.068 886.781 603.23C886.781 605.392 888.701 607.144 891.068 607.144Z" fill="#EBEBEB" stroke="#EBEBEB" stroke-width="0.5" stroke-miterlimit="10"/>
<path d="M844.364 533.286C846.731 533.286 848.651 531.534 848.651 529.372C848.651 527.21 846.731 525.458 844.364 525.458C841.996 525.458 840.077 527.21 840.077 529.372C840.077 531.534 841.996 533.286 844.364 533.286Z" fill="#EBEBEB" stroke="#EBEBEB" stroke-width="0.5" stroke-miterlimit="10"/>
<path d="M914.414 496.353C916.781 496.353 918.701 494.6 918.701 492.439C918.701 490.277 916.781 488.525 914.414 488.525C912.046 488.525 910.127 490.277 910.127 492.439C910.127 494.6 912.046 496.353 914.414 496.353Z" fill="#EBEBEB" stroke="#EBEBEB" stroke-width="0.5" stroke-miterlimit="10"/>
<path d="M704.25 533.286C706.617 533.286 708.536 531.534 708.536 529.372C708.536 527.21 706.617 525.458 704.25 525.458C701.882 525.458 699.963 527.21 699.963 529.372C699.963 531.534 701.882 533.286 704.25 533.286Z" fill="#EBEBEB" stroke="#EBEBEB" stroke-width="0.5" stroke-miterlimit="10"/>
<path d="M750.954 533.286C753.321 533.286 755.241 531.534 755.241 529.372C755.241 527.21 753.321 525.458 750.954 525.458C748.586 525.458 746.667 527.21 746.667 529.372C746.667 531.534 748.586 533.286 750.954 533.286Z" fill="#EBEBEB" stroke="#EBEBEB" stroke-width="0.5" stroke-miterlimit="10"/>
<path d="M774.306 570.219C776.674 570.219 778.593 568.467 778.593 566.305C778.593 564.143 776.674 562.391 774.306 562.391C771.939 562.391 770.02 564.143 770.02 566.305C770.02 568.467 771.939 570.219 774.306 570.219Z" fill="#EBEBEB" stroke="#EBEBEB" stroke-width="0.5" stroke-miterlimit="10"/>
<path d="M680.897 570.219C683.265 570.219 685.184 568.467 685.184 566.305C685.184 564.143 683.265 562.391 680.897 562.391C678.53 562.391 676.61 564.143 676.61 566.305C676.61 568.467 678.53 570.219 680.897 570.219Z" fill="#EBEBEB" stroke="#EBEBEB" stroke-width="0.5" stroke-miterlimit="10"/>
<path d="M704.25 607.144C706.617 607.144 708.536 605.392 708.536 603.23C708.536 601.068 706.617 599.316 704.25 599.316C701.882 599.316 699.963 601.068 699.963 603.23C699.963 605.392 701.882 607.144 704.25 607.144Z" fill="#EBEBEB" stroke="#EBEBEB" stroke-width="0.5" stroke-miterlimit="10"/>
<path d="M750.954 607.144C753.321 607.144 755.241 605.392 755.241 603.23C755.241 601.068 753.321 599.316 750.954 599.316C748.586 599.316 746.667 601.068 746.667 603.23C746.667 605.392 748.586 607.144 750.954 607.144Z" fill="#EBEBEB" stroke="#EBEBEB" stroke-width="0.5" stroke-miterlimit="10"/>
<path d="M774.306 496.353C776.674 496.353 778.593 494.6 778.593 492.439C778.593 490.277 776.674 488.525 774.306 488.525C771.939 488.525 770.02 490.277 770.02 492.439C770.02 494.6 771.939 496.353 774.306 496.353Z" fill="#EBEBEB" stroke="#EBEBEB" stroke-width="0.5" stroke-miterlimit="10"/>
<path d="M821.011 496.353C823.379 496.353 825.298 494.6 825.298 492.439C825.298 490.277 823.379 488.525 821.011 488.525C818.644 488.525 816.725 490.277 816.725 492.439C816.725 494.6 818.644 496.353 821.011 496.353Z" fill="#EBEBEB" stroke="#EBEBEB" stroke-width="0.5" stroke-miterlimit="10"/>
<path d="M844.364 533.286C846.731 533.286 848.651 531.534 848.651 529.372C848.651 527.21 846.731 525.458 844.364 525.458C841.996 525.458 840.077 527.21 840.077 529.372C840.077 531.534 841.996 533.286 844.364 533.286Z" fill="#EBEBEB" stroke="#EBEBEB" stroke-width="0.5" stroke-miterlimit="10"/>
<path d="M750.954 533.286C753.321 533.286 755.241 531.534 755.241 529.372C755.241 527.21 753.321 525.458 750.954 525.458C748.586 525.458 746.667 527.21 746.667 529.372C746.667 531.534 748.586 533.286 750.954 533.286Z" fill="#EBEBEB" stroke="#EBEBEB" stroke-width="0.5" stroke-miterlimit="10"/>
<path d="M774.306 570.219C776.674 570.219 778.593 568.467 778.593 566.305C778.593 564.143 776.674 562.391 774.306 562.391C771.939 562.391 770.02 564.143 770.02 566.305C770.02 568.467 771.939 570.219 774.306 570.219Z" fill="#EBEBEB" stroke="#EBEBEB" stroke-width="0.5" stroke-miterlimit="10"/>
<path d="M891.068 459.42C893.436 459.42 895.355 457.667 895.355 455.506C895.355 453.344 893.436 451.591 891.068 451.591C888.701 451.591 886.781 453.344 886.781 455.506C886.781 457.667 888.701 459.42 891.068 459.42Z" fill="#EBEBEB" stroke="#EBEBEB" stroke-width="0.5" stroke-miterlimit="10"/>
<path d="M914.414 496.353C916.781 496.353 918.701 494.6 918.701 492.439C918.701 490.277 916.781 488.525 914.414 488.525C912.046 488.525 910.127 490.277 910.127 492.439C910.127 494.6 912.046 496.353 914.414 496.353Z" fill="#EBEBEB" stroke="#EBEBEB" stroke-width="0.5" stroke-miterlimit="10"/>
<path d="M891.068 533.286C893.436 533.286 895.355 531.534 895.355 529.372C895.355 527.21 893.436 525.458 891.068 525.458C888.701 525.458 886.781 527.21 886.781 529.372C886.781 531.534 888.701 533.286 891.068 533.286Z" fill="#EBEBEB" stroke="#EBEBEB" stroke-width="0.5" stroke-miterlimit="10"/>
<path d="M844.364 459.42C846.731 459.42 848.651 457.667 848.651 455.506C848.651 453.344 846.731 451.591 844.364 451.591C841.996 451.591 840.077 453.344 840.077 455.506C840.077 457.667 841.996 459.42 844.364 459.42Z" fill="#EBEBEB" stroke="#EBEBEB" stroke-width="0.5" stroke-miterlimit="10"/>
<path d="M914.414 422.495C916.781 422.495 918.701 420.742 918.701 418.58C918.701 416.419 916.781 414.666 914.414 414.666C912.046 414.666 910.127 416.419 910.127 418.58C910.127 420.742 912.046 422.495 914.414 422.495Z" fill="#EBEBEB" stroke="#EBEBEB" stroke-width="0.5" stroke-miterlimit="10"/>
<path d="M914.735 717.944C917.103 717.944 919.022 716.191 919.022 714.029C919.022 711.868 917.103 710.115 914.735 710.115C912.367 710.115 910.448 711.868 910.448 714.029C910.448 716.191 912.367 717.944 914.735 717.944Z" fill="#EBEBEB" stroke="#EBEBEB" stroke-width="0.5" stroke-miterlimit="10"/>
<path d="M1241.34 418.363H1198.92" stroke="#EBEBEB" stroke-width="3" stroke-miterlimit="10"/>
<path d="M1264.69 307.564L1241.34 270.856" stroke="#EBEBEB" stroke-width="3" stroke-miterlimit="10"/>
<path d="M1381.45 122.914L1405.01 159.839" stroke="#EBEBEB" stroke-width="3" stroke-miterlimit="10"/>
<path d="M1031.18 307.564L1054.53 270.639" stroke="#EBEBEB" stroke-width="3" stroke-miterlimit="10"/>
<path d="M984.642 676.879H1035.62" stroke="#EBEBEB" stroke-width="3" stroke-miterlimit="10"/>
<path d="M1058.98 639.946H1101.4" stroke="#EBEBEB" stroke-width="3" stroke-miterlimit="10"/>
<path d="M563.821 603.121H610.526" stroke="#EBEBEB" stroke-width="3" stroke-miterlimit="10"/>
<path d="M680.899 418.58L704.252 455.506" stroke="#EBEBEB" stroke-width="3" stroke-miterlimit="10"/>
<path d="M750.956 381.647L774.308 418.58" stroke="#EBEBEB" stroke-width="3" stroke-miterlimit="10"/>
<path d="M540.478 566.196H493.773L470.421 603.122L493.773 640.055H540.478L563.822 603.122L540.478 566.196Z" stroke="#EBEBEB" stroke-width="3" stroke-miterlimit="10"/>
<path d="M540.478 713.921H493.773L470.421 750.846L493.773 787.779H540.478L563.822 750.846L540.478 713.921Z" stroke="#EBEBEB" stroke-width="3" stroke-miterlimit="10"/>
<path d="M610.526 676.988H563.821L540.478 713.921L563.821 750.846H610.526L633.879 713.921L610.526 676.988Z" stroke="#EBEBEB" stroke-width="3" stroke-miterlimit="10"/>
<path d="M680.584 640.055H633.879L610.526 676.988L633.879 713.921H680.584L703.936 676.988L680.584 640.055Z" stroke="#EBEBEB" stroke-width="3" stroke-miterlimit="10"/>
<path d="M400.516 714.138H353.811L330.459 751.063L353.811 787.996H400.516L423.86 751.063L400.516 714.138Z" stroke="#EBEBEB" stroke-width="3" stroke-miterlimit="10"/>
<path d="M470.564 677.205H423.86L400.516 714.138L423.86 751.063H470.564L493.917 714.138L470.564 677.205Z" stroke="#EBEBEB" stroke-width="3" stroke-miterlimit="10"/>
<path d="M260.402 714.138H213.697L190.345 751.063L213.697 787.996H260.402L283.754 751.063L260.402 714.138Z" stroke="#EBEBEB" stroke-width="3" stroke-miterlimit="10"/>
<path d="M1171.45 529.155H1124.75L1101.4 566.08L1124.75 603.013H1171.45L1194.81 566.08L1171.45 529.155Z" stroke="#EBEBEB" stroke-width="3" stroke-miterlimit="10"/>
<path d="M1241.51 492.222H1194.8L1171.45 529.155L1194.8 566.08H1241.51L1264.86 529.155L1241.51 492.222Z" stroke="#EBEBEB" stroke-width="3" stroke-miterlimit="10"/>
<path d="M1241.51 639.946H1194.8L1171.45 676.879L1194.8 713.805H1241.51L1264.86 676.879L1241.51 639.946Z" stroke="#EBEBEB" stroke-width="3" stroke-miterlimit="10"/>
<path d="M1171.45 603.013H1124.75L1101.4 639.946L1124.75 676.879H1171.45L1194.81 639.946L1171.45 603.013Z" stroke="#EBEBEB" stroke-width="3" stroke-miterlimit="10"/>
<path d="M821.329 714.029H774.624L751.271 750.955L774.624 787.888H821.329L844.681 750.955L821.329 714.029Z" stroke="#EBEBEB" stroke-width="3" stroke-miterlimit="10"/>
<path d="M891.385 677.096H844.681L821.328 714.029L844.681 750.955H891.385L914.738 714.029L891.385 677.096Z" stroke="#EBEBEB" stroke-width="3" stroke-miterlimit="10"/>
<path d="M961.434 640.163H914.738L891.386 677.096L914.738 714.029H961.434L984.787 677.096L961.434 640.163Z" stroke="#EBEBEB" stroke-width="3" stroke-miterlimit="10"/>
<path d="M751.27 677.096H704.565L681.213 714.029L704.565 750.955H751.27L774.623 714.029L751.27 677.096Z" stroke="#EBEBEB" stroke-width="3" stroke-miterlimit="10"/>
<path d="M821.329 640.163H774.624L751.271 677.096L774.624 714.029H821.329L844.681 677.096L821.329 640.163Z" stroke="#EBEBEB" stroke-width="3" stroke-miterlimit="10"/>
<path d="M961.434 566.305H914.738L891.386 603.23L914.738 640.163H961.434L984.787 603.23L961.434 566.305Z" stroke="#EBEBEB" stroke-width="3" stroke-miterlimit="10"/>
<path d="M1241.51 713.805H1194.8L1171.45 750.738L1194.8 787.671H1241.51L1264.86 750.738L1241.51 713.805Z" stroke="#EBEBEB" stroke-width="3" stroke-miterlimit="10"/>
<path d="M1311.41 677.096H1264.71L1241.35 714.029L1264.71 750.955H1311.41L1334.76 714.029L1311.41 677.096Z" stroke="#EBEBEB" stroke-width="3" stroke-miterlimit="10"/>
<path d="M1381.47 640.163H1334.76L1311.41 677.096L1334.76 714.029H1381.47L1404.82 677.096L1381.47 640.163Z" stroke="#EBEBEB" stroke-width="3" stroke-miterlimit="10"/>
<path d="M1451.53 603.23H1404.82L1381.47 640.163L1404.82 677.096H1451.53L1474.88 640.163L1451.53 603.23Z" stroke="#EBEBEB" stroke-width="3" stroke-miterlimit="10"/>
<path d="M1311.41 603.23H1264.71L1241.35 640.163L1264.71 677.096H1311.41L1334.76 640.163L1311.41 603.23Z" stroke="#EBEBEB" stroke-width="3" stroke-miterlimit="10"/>
<path d="M1381.47 566.305H1334.76L1311.41 603.23L1334.76 640.163H1381.47L1404.82 603.23L1381.47 566.305Z" stroke="#EBEBEB" stroke-width="3" stroke-miterlimit="10"/>
<path d="M1451.53 529.372H1404.82L1381.47 566.305L1404.82 603.23H1451.53L1474.88 566.305L1451.53 529.372Z" stroke="#EBEBEB" stroke-width="3" stroke-miterlimit="10"/>
<path d="M1311.41 455.506H1264.71L1241.35 492.439L1264.71 529.372H1311.41L1334.76 492.439L1311.41 455.506Z" stroke="#EBEBEB" stroke-width="3" stroke-miterlimit="10"/>
<path d="M1381.47 418.58H1334.76L1311.41 455.506L1334.76 492.439H1381.47L1404.82 455.506L1381.47 418.58Z" stroke="#EBEBEB" stroke-width="3" stroke-miterlimit="10"/>
<path d="M1031.18 529.155H984.473L961.12 566.08L984.473 603.013H1031.18L1054.53 566.08L1031.18 529.155Z" stroke="#EBEBEB" stroke-width="3" stroke-miterlimit="10"/>
<path d="M1101.23 492.222H1054.53L1031.18 529.155L1054.53 566.08H1101.23L1124.59 529.155L1101.23 492.222Z" stroke="#EBEBEB" stroke-width="3" stroke-miterlimit="10"/>
<path d="M1171.29 455.289H1124.59L1101.23 492.222L1124.59 529.155H1171.29L1194.64 492.222L1171.29 455.289Z" stroke="#EBEBEB" stroke-width="3" stroke-miterlimit="10"/>
<path d="M1311.4 381.43H1264.69L1241.34 418.363L1264.69 455.288H1311.4L1334.75 418.363L1311.4 381.43Z" stroke="#EBEBEB" stroke-width="3" stroke-miterlimit="10"/>
<path d="M1031.18 455.289H984.473L961.12 492.222L984.473 529.155H1031.18L1054.53 492.222L1031.18 455.289Z" stroke="#EBEBEB" stroke-width="3" stroke-miterlimit="10"/>
<path d="M1101.23 418.363H1054.53L1031.18 455.289L1054.53 492.222H1101.23L1124.59 455.289L1101.23 418.363Z" stroke="#EBEBEB" stroke-width="3" stroke-miterlimit="10"/>
<path d="M1311.4 307.564H1264.69L1241.34 344.497L1264.69 381.43H1311.4L1334.75 344.497L1311.4 307.564Z" stroke="#EBEBEB" stroke-width="3" stroke-miterlimit="10"/>
<path d="M1451.71 233.706H1405.01L1381.66 270.639L1405.01 307.564H1451.71L1475.07 270.639L1451.71 233.706Z" stroke="#EBEBEB" stroke-width="3" stroke-miterlimit="10"/>
<path d="M1031.18 381.43H984.473L961.12 418.363L984.473 455.288H1031.18L1054.53 418.363L1031.18 381.43Z" stroke="#EBEBEB" stroke-width="3" stroke-miterlimit="10"/>
<path d="M1101.23 344.497H1054.53L1031.18 381.43L1054.53 418.363H1101.23L1124.59 381.43L1101.23 344.497Z" stroke="#EBEBEB" stroke-width="3" stroke-miterlimit="10"/>
<path d="M1451.71 159.839H1405.01L1381.66 196.772L1405.01 233.706H1451.71L1475.07 196.772L1451.71 159.839Z" stroke="#EBEBEB" stroke-width="3" stroke-miterlimit="10"/>
<path d="M1031.18 307.564H984.473L961.12 344.497L984.473 381.43H1031.18L1054.53 344.497L1031.18 307.564Z" stroke="#EBEBEB" stroke-width="3" stroke-miterlimit="10"/>
<path d="M1171.29 233.706H1124.59L1101.23 270.639L1124.59 307.564H1171.29L1194.64 270.639L1171.29 233.706Z" stroke="#EBEBEB" stroke-width="3" stroke-miterlimit="10"/>
<path d="M1311.4 159.839H1264.69L1241.34 196.772L1264.69 233.706H1311.4L1334.75 196.772L1311.4 159.839Z" stroke="#EBEBEB" stroke-width="3" stroke-miterlimit="10"/>
<path d="M750.957 529.372H704.252L680.899 566.305L704.252 603.23H750.957L774.309 566.305L750.957 529.372Z" stroke="#EBEBEB" stroke-width="3" stroke-miterlimit="10"/>
<path d="M891.071 455.506H844.366L821.014 492.439L844.366 529.372H891.071L914.415 492.439L891.071 455.506Z" stroke="#EBEBEB" stroke-width="3" stroke-miterlimit="10"/>
<path d="M750.957 455.506H704.252L680.899 492.439L704.252 529.372H750.957L774.309 492.439L750.957 455.506Z" stroke="#EBEBEB" stroke-width="3" stroke-miterlimit="10"/>
<path d="M891.071 381.647H844.366L821.014 418.58L844.366 455.506H891.071L914.415 418.58L891.071 381.647Z" stroke="#EBEBEB" stroke-width="3" stroke-miterlimit="10"/>
<path d="M891.071 307.781H844.366L821.014 344.714L844.366 381.647H891.071L914.415 344.714L891.071 307.781Z" stroke="#EBEBEB" stroke-width="3" stroke-miterlimit="10"/>
<path d="M961.434 714.029H914.738L891.386 750.955L914.738 787.888H961.434L984.787 750.955L961.434 714.029Z" stroke="#EBEBEB" stroke-width="3" stroke-miterlimit="10"/>
</g>
<defs>
<clipPath id="clip0_34_1402">
<rect width="1440" height="740" fill="white" transform="translate(-1)"/>
</clipPath>
</defs>
</svg>
