<svg width="59" height="55" viewBox="0 0 59 55" fill="none" xmlns="http://www.w3.org/2000/svg">
<path d="M29.5 52.9948C44.6877 52.9948 57 41.5631 57 27.4616C57 13.36 44.6877 1.92847 29.5 1.92847C14.3122 1.92847 2 13.36 2 27.4616C2 41.5631 14.3122 52.9948 29.5 52.9948Z" stroke="#FFFDFA" stroke-width="3.5" stroke-linecap="round" stroke-linejoin="round"/>
<path d="M18.5001 4.48181H21.2501C15.8876 19.3932 15.8876 35.5301 21.2501 50.4415H18.5001" stroke="#FFFDFA" stroke-width="3.5" stroke-linecap="round" stroke-linejoin="round"/>
<path d="M37.75 4.48181C43.1125 19.3932 43.1125 35.5301 37.75 50.4415" stroke="#FFFDFA" stroke-width="3.5" stroke-linecap="round" stroke-linejoin="round"/>
<path d="M4.75024 37.6749V35.1216C20.8102 40.1005 38.1902 40.1005 54.2502 35.1216V37.6749" stroke="#FFFDFA" stroke-width="3.5" stroke-linecap="round" stroke-linejoin="round"/>
<path d="M4.75024 19.8019C20.8102 14.8229 38.1902 14.8229 54.2502 19.8019" stroke="#FFFDFA" stroke-width="3.5" stroke-linecap="round" stroke-linejoin="round"/>
</svg>
