<svg width="39" height="66" viewBox="0 0 39 66" fill="none" xmlns="http://www.w3.org/2000/svg">
<path fill-rule="evenodd" clip-rule="evenodd" d="M10.6277 11.0613C8.20312 13.2944 6.5 16.7927 6.5 21.9474C6.5 27.7378 7.29692 29.1108 7.74596 29.7153C7.99278 30.0476 8.18329 30.2362 8.51058 30.5603L8.5106 30.5603L8.51062 30.5603C8.72822 30.7758 9.00628 31.0511 9.40154 31.4682C10.2717 32.3866 11.2211 33.5546 12.113 35.3383C13.5941 38.3006 14.4248 40.6476 14.8895 42.3772H27.0052C27.47 40.6477 28.3006 38.3006 29.7818 35.3383C30.6736 33.5546 31.623 32.3866 32.4932 31.4682C32.8885 31.0511 33.1665 30.7758 33.3841 30.5603C33.7114 30.2363 33.902 30.0476 34.1488 29.7153C34.5978 29.1108 35.3947 27.7378 35.3947 21.9474C35.3947 16.7927 33.6916 13.2944 31.267 11.0613C28.7952 8.78487 25.2191 7.5 20.9474 7.5C16.6757 7.5 13.0995 8.78487 10.6277 11.0613ZM3 21.9474C3 9.98246 11.0353 4 20.9474 4C30.8594 4 38.8947 9.98246 38.8947 21.9474C38.8947 30.0045 37.4576 31.441 35.6598 33.238C34.7879 34.1095 33.8311 35.0659 32.9123 36.9035C30.9151 40.8978 30.2514 43.5587 30.0308 44.8861C29.9403 45.4309 29.4733 45.8772 28.9211 45.8772H12.9737C12.4214 45.8772 11.9544 45.4309 11.8639 44.8861C11.6433 43.5587 10.9796 40.8978 8.98246 36.9035C8.06363 35.0659 7.10685 34.1095 6.2349 33.238C4.43711 31.441 3 30.0045 3 21.9474ZM11.9737 49.3684C11.9737 49.0923 12.1975 48.8684 12.4737 48.8684H29.4211C29.6972 48.8684 29.9211 49.0923 29.9211 49.3684V57.5831C29.9211 57.7455 29.8437 57.8967 29.7092 57.9877C28.93 58.5152 26.1563 60.321 23.9915 60.8213C23.956 60.8295 23.9195 60.8333 23.883 60.8333H18.011C17.9745 60.8333 17.9388 60.8295 17.9032 60.8213C15.7385 60.321 12.9647 58.5152 12.1855 57.9877C12.0511 57.8967 11.9737 57.7455 11.9737 57.5831V49.3684ZM15.965 20.4518C15.965 19.9672 16.2373 19.0601 16.8676 18.2722C17.4726 17.516 18.328 16.9649 19.4519 16.9649C20.0042 16.9649 20.4519 16.5172 20.4519 15.9649C20.4519 15.4127 20.0042 14.9649 19.4519 14.9649C17.5845 14.9649 16.1965 15.9095 15.3059 17.0228C14.4406 18.1044 13.965 19.4407 13.965 20.4518C13.965 21.004 14.4128 21.4518 14.965 21.4518C15.5173 21.4518 15.965 21.004 15.965 20.4518Z" fill="#E82427"/>
</svg>
